0
SECTION
2
HEADER
9
$INSUNITS
70
4
0
ENDSEC
0
SECTION
2
TABLES
0
TABLE
2
LTYPE
0
LTYPE
72
65
70
64
2
CONTINUOUS
3
______
73
0
40
0
0
ENDTAB
0
TABLE
2
LAYER
0
ENDTAB
0
ENDSEC
0
SECTION
2
ENTITIES
0
LINE
8
front_outsideCutPath
10
0
20
703
11
0
21
660.125
0
LINE
8
front_outsideCutPath
10
0
20
660.125
11
3
21
660.125
0
LINE
8
front_outsideCutPath
10
3
20
660.125
11
3
21
612.875
0
LINE
8
front_outsideCutPath
10
3
20
612.875
11
0
21
612.875
0
LINE
8
front_outsideCutPath
10
0
20
612.875
11
0
21
565.625
0
LINE
8
front_outsideCutPath
10
0
20
565.625
11
3
21
565.625
0
LINE
8
front_outsideCutPath
10
3
20
565.625
11
3
21
518.375
0
LINE
8
front_outsideCutPath
10
3
20
518.375
11
0
21
518.375
0
LINE
8
front_outsideCutPath
10
0
20
518.375
11
0
21
471.125
0
LINE
8
front_outsideCutPath
10
0
20
471.125
11
3
21
471.125
0
LINE
8
front_outsideCutPath
10
3
20
471.125
11
3
21
423.875
0
LINE
8
front_outsideCutPath
10
3
20
423.875
11
0
21
423.875
0
LINE
8
front_outsideCutPath
10
0
20
423.875
11
0
21
376.625
0
LINE
8
front_outsideCutPath
10
0
20
376.625
11
3
21
376.625
0
LINE
8
front_outsideCutPath
10
3
20
376.625
11
3
21
329.375
0
LINE
8
front_outsideCutPath
10
3
20
329.375
11
0
21
329.375
0
LINE
8
front_outsideCutPath
10
0
20
329.375
11
0
21
282.125
0
LINE
8
front_outsideCutPath
10
0
20
282.125
11
3
21
282.125
0
LINE
8
front_outsideCutPath
10
3
20
282.125
11
3
21
234.875
0
LINE
8
front_outsideCutPath
10
3
20
234.875
11
0
21
234.875
0
LINE
8
front_outsideCutPath
10
0
20
234.875
11
0
21
187.625
0
LINE
8
front_outsideCutPath
10
0
20
187.625
11
3
21
187.625
0
LINE
8
front_outsideCutPath
10
3
20
187.625
11
3
21
140.375
0
LINE
8
front_outsideCutPath
10
3
20
140.375
11
0
21
140.375
0
LINE
8
front_outsideCutPath
10
0
20
140.375
11
0
21
93.125
0
LINE
8
front_outsideCutPath
10
0
20
93.125
11
3
21
93.125
0
LINE
8
front_outsideCutPath
10
3
20
93.125
11
3
21
45.875
0
LINE
8
front_outsideCutPath
10
3
20
45.875
11
0
21
45.875
0
LINE
8
front_outsideCutPath
10
0
20
45.875
11
0
21
3
0
LINE
8
front_outsideCutPath
10
0
20
3
11
51.125
21
3
0
LINE
8
front_outsideCutPath
10
51.125
20
3
11
51.125
21
6
0
LINE
8
front_outsideCutPath
10
51.125
20
6
11
98.375
21
6
0
LINE
8
front_outsideCutPath
10
98.375
20
6
11
98.375
21
3
0
LINE
8
front_outsideCutPath
10
98.375
20
3
11
145.625
21
3
0
LINE
8
front_outsideCutPath
10
145.625
20
3
11
145.625
21
6
0
LINE
8
front_outsideCutPath
10
145.625
20
6
11
192.875
21
6
0
LINE
8
front_outsideCutPath
10
192.875
20
6
11
192.875
21
3
0
LINE
8
front_outsideCutPath
10
192.875
20
3
11
240.125
21
3
0
LINE
8
front_outsideCutPath
10
240.125
20
3
11
240.125
21
6
0
LINE
8
front_outsideCutPath
10
240.125
20
6
11
287.375
21
6
0
LINE
8
front_outsideCutPath
10
287.375
20
6
11
287.375
21
3
0
LINE
8
front_outsideCutPath
10
287.375
20
3
11
334.625
21
3
0
LINE
8
front_outsideCutPath
10
334.625
20
3
11
334.625
21
6
0
LINE
8
front_outsideCutPath
10
334.625
20
6
11
381.875
21
6
0
LINE
8
front_outsideCutPath
10
381.875
20
6
11
381.875
21
3
0
LINE
8
front_outsideCutPath
10
381.875
20
3
11
429.125
21
3
0
LINE
8
front_outsideCutPath
10
429.125
20
3
11
429.125
21
6
0
LINE
8
front_outsideCutPath
10
429.125
20
6
11
476.375
21
6
0
LINE
8
front_outsideCutPath
10
476.375
20
6
11
476.375
21
3
0
LINE
8
front_outsideCutPath
10
476.375
20
3
11
523.625
21
3
0
LINE
8
front_outsideCutPath
10
523.625
20
3
11
523.625
21
6
0
LINE
8
front_outsideCutPath
10
523.625
20
6
11
570.875
21
6
0
LINE
8
front_outsideCutPath
10
570.875
20
6
11
570.875
21
3
0
LINE
8
front_outsideCutPath
10
570.875
20
3
11
618.125
21
3
0
LINE
8
front_outsideCutPath
10
618.125
20
3
11
618.125
21
6
0
LINE
8
front_outsideCutPath
10
618.125
20
6
11
665.375
21
6
0
LINE
8
front_outsideCutPath
10
665.375
20
6
11
665.375
21
3
0
LINE
8
front_outsideCutPath
10
665.375
20
3
11
712.625
21
3
0
LINE
8
front_outsideCutPath
10
712.625
20
3
11
712.625
21
6
0
LINE
8
front_outsideCutPath
10
712.625
20
6
11
759.875
21
6
0
LINE
8
front_outsideCutPath
10
759.875
20
6
11
759.875
21
3
0
LINE
8
front_outsideCutPath
10
759.875
20
3
11
807.125
21
3
0
LINE
8
front_outsideCutPath
10
807.125
20
3
11
807.125
21
6
0
LINE
8
front_outsideCutPath
10
807.125
20
6
11
854.375
21
6
0
LINE
8
front_outsideCutPath
10
854.375
20
6
11
854.375
21
3
0
LINE
8
front_outsideCutPath
10
854.375
20
3
11
901.625
21
3
0
LINE
8
front_outsideCutPath
10
901.625
20
3
11
901.625
21
6
0
LINE
8
front_outsideCutPath
10
901.625
20
6
11
948.875
21
6
0
LINE
8
front_outsideCutPath
10
948.875
20
6
11
948.875
21
3
0
LINE
8
front_outsideCutPath
10
948.875
20
3
11
1000
21
3
0
LINE
8
front_outsideCutPath
10
1000
20
3
11
1000
21
45.875
0
LINE
8
front_outsideCutPath
10
1000
20
45.875
11
997
21
45.875
0
LINE
8
front_outsideCutPath
10
997
20
45.875
11
997
21
93.125
0
LINE
8
front_outsideCutPath
10
997
20
93.125
11
1000
21
93.125
0
LINE
8
front_outsideCutPath
10
1000
20
93.125
11
1000
21
140.375
0
LINE
8
front_outsideCutPath
10
1000
20
140.375
11
997
21
140.375
0
LINE
8
front_outsideCutPath
10
997
20
140.375
11
997
21
187.625
0
LINE
8
front_outsideCutPath
10
997
20
187.625
11
1000
21
187.625
0
LINE
8
front_outsideCutPath
10
1000
20
187.625
11
1000
21
234.875
0
LINE
8
front_outsideCutPath
10
1000
20
234.875
11
997
21
234.875
0
LINE
8
front_outsideCutPath
10
997
20
234.875
11
997
21
282.125
0
LINE
8
front_outsideCutPath
10
997
20
282.125
11
1000
21
282.125
0
LINE
8
front_outsideCutPath
10
1000
20
282.125
11
1000
21
329.375
0
LINE
8
front_outsideCutPath
10
1000
20
329.375
11
997
21
329.375
0
LINE
8
front_outsideCutPath
10
997
20
329.375
11
997
21
376.625
0
LINE
8
front_outsideCutPath
10
997
20
376.625
11
1000
21
376.625
0
LINE
8
front_outsideCutPath
10
1000
20
376.625
11
1000
21
423.875
0
LINE
8
front_outsideCutPath
10
1000
20
423.875
11
997
21
423.875
0
LINE
8
front_outsideCutPath
10
997
20
423.875
11
997
21
471.125
0
LINE
8
front_outsideCutPath
10
997
20
471.125
11
1000
21
471.125
0
LINE
8
front_outsideCutPath
10
1000
20
471.125
11
1000
21
518.375
0
LINE
8
front_outsideCutPath
10
1000
20
518.375
11
997
21
518.375
0
LINE
8
front_outsideCutPath
10
997
20
518.375
11
997
21
565.625
0
LINE
8
front_outsideCutPath
10
997
20
565.625
11
1000
21
565.625
0
LINE
8
front_outsideCutPath
10
1000
20
565.625
11
1000
21
612.875
0
LINE
8
front_outsideCutPath
10
1000
20
612.875
11
997
21
612.875
0
LINE
8
front_outsideCutPath
10
997
20
612.875
11
997
21
660.125
0
LINE
8
front_outsideCutPath
10
997
20
660.125
11
1000
21
660.125
0
LINE
8
front_outsideCutPath
10
1000
20
660.125
11
1000
21
703
0
LINE
8
front_outsideCutPath
10
1000
20
703
11
948.875
21
703
0
LINE
8
front_outsideCutPath
10
948.875
20
703
11
948.875
21
700
0
LINE
8
front_outsideCutPath
10
948.875
20
700
11
901.625
21
700
0
LINE
8
front_outsideCutPath
10
901.625
20
700
11
901.625
21
703
0
LINE
8
front_outsideCutPath
10
901.625
20
703
11
854.375
21
703
0
LINE
8
front_outsideCutPath
10
854.375
20
703
11
854.375
21
700
0
LINE
8
front_outsideCutPath
10
854.375
20
700
11
807.125
21
700
0
LINE
8
front_outsideCutPath
10
807.125
20
700
11
807.125
21
703
0
LINE
8
front_outsideCutPath
10
807.125
20
703
11
759.875
21
703
0
LINE
8
front_outsideCutPath
10
759.875
20
703
11
759.875
21
700
0
LINE
8
front_outsideCutPath
10
759.875
20
700
11
712.625
21
700
0
LINE
8
front_outsideCutPath
10
712.625
20
700
11
712.625
21
703
0
LINE
8
front_outsideCutPath
10
712.625
20
703
11
665.375
21
703
0
LINE
8
front_outsideCutPath
10
665.375
20
703
11
665.375
21
700
0
LINE
8
front_outsideCutPath
10
665.375
20
700
11
618.125
21
700
0
LINE
8
front_outsideCutPath
10
618.125
20
700
11
618.125
21
703
0
LINE
8
front_outsideCutPath
10
618.125
20
703
11
570.875
21
703
0
LINE
8
front_outsideCutPath
10
570.875
20
703
11
570.875
21
700
0
LINE
8
front_outsideCutPath
10
570.875
20
700
11
523.625
21
700
0
LINE
8
front_outsideCutPath
10
523.625
20
700
11
523.625
21
703
0
LINE
8
front_outsideCutPath
10
523.625
20
703
11
476.375
21
703
0
LINE
8
front_outsideCutPath
10
476.375
20
703
11
476.375
21
700
0
LINE
8
front_outsideCutPath
10
476.375
20
700
11
429.125
21
700
0
LINE
8
front_outsideCutPath
10
429.125
20
700
11
429.125
21
703
0
LINE
8
front_outsideCutPath
10
429.125
20
703
11
381.875
21
703
0
LINE
8
front_outsideCutPath
10
381.875
20
703
11
381.875
21
700
0
LINE
8
front_outsideCutPath
10
381.875
20
700
11
334.625
21
700
0
LINE
8
front_outsideCutPath
10
334.625
20
700
11
334.625
21
703
0
LINE
8
front_outsideCutPath
10
334.625
20
703
11
287.375
21
703
0
LINE
8
front_outsideCutPath
10
287.375
20
703
11
287.375
21
700
0
LINE
8
front_outsideCutPath
10
287.375
20
700
11
240.125
21
700
0
LINE
8
front_outsideCutPath
10
240.125
20
700
11
240.125
21
703
0
LINE
8
front_outsideCutPath
10
240.125
20
703
11
192.875
21
703
0
LINE
8
front_outsideCutPath
10
192.875
20
703
11
192.875
21
700
0
LINE
8
front_outsideCutPath
10
192.875
20
700
11
145.625
21
700
0
LINE
8
front_outsideCutPath
10
145.625
20
700
11
145.625
21
703
0
LINE
8
front_outsideCutPath
10
145.625
20
703
11
98.375
21
703
0
LINE
8
front_outsideCutPath
10
98.375
20
703
11
98.375
21
700
0
LINE
8
front_outsideCutPath
10
98.375
20
700
11
51.125
21
700
0
LINE
8
front_outsideCutPath
10
51.125
20
700
11
51.125
21
703
0
LINE
8
front_outsideCutPath
10
51.125
20
703
11
0
21
703
0
LINE
8
front_labelLayer
10
384.0283203
20
375.0473806
11
384.0283203
21
366.2290212
0
LINE
8
front_labelLayer
10
384.0283203
20
366.2290212
11
364.9560547
21
366.2290212
0
LINE
8
front_labelLayer
10
364.9560547
20
366.2290212
11
364.9560547
21
300.1255056
0
LINE
8
front_labelLayer
10
364.9560547
20
300.1255056
11
353.6083984
21
300.1255056
0
LINE
8
front_labelLayer
10
353.6083984
20
300.1255056
11
353.6083984
21
366.2290212
0
LINE
8
front_labelLayer
10
353.6083984
20
366.2290212
11
340.2099609
21
366.2290212
0
LINE
8
front_labelLayer
10
340.2099609
20
366.2290212
11
340.2099609
21
371.3559744
0
LINE
8
front_labelLayer
10
340.2099609
20
371.3559744
11
353.6083984
21
375.4575369
0
LINE
8
front_labelLayer
10
353.6083984
20
375.4575369
11
353.6083984
21
379.6274587
0
LINE
8
front_labelLayer
10
391.6845703
20
404.8520681
11
388.7451172
21
395.7602712
0
LINE
8
front_labelLayer
10
364.9560547
20
379.9008962
11
364.9560547
21
375.0473806
0
LINE
8
front_labelLayer
10
364.9560547
20
375.0473806
11
384.0283203
21
375.0473806
0
ARC
8
front_labelLayer
10
399.5965047
20
380.1561616
40
45.9911453
50
167.5776029
51
180.6586727
0
ARC
8
front_labelLayer
10
377.9699454
20
385.1982188
40
23.7878211
50
141.7433838
51
168.2322102
0
ARC
8
front_labelLayer
10
374.4487108
20
387.0360392
40
19.8984964
50
98.2551512
51
139.620334
0
ARC
8
front_labelLayer
10
377.5404147
20
372.7535423
40
34.4916771
50
89.6696904
51
99.9314314
0
ARC
8
front_labelLayer
10
377.5490379
20
370.7030649
40
36.5420764
50
81.5640914
51
89.7017453
0
ARC
8
front_labelLayer
10
374.9800451
20
352.7803929
40
54.6477856
50
75.9739916
51
81.6564729
0
ARC
8
front_labelLayer
10
370.5714833
20
334.4946887
40
73.4569484
50
73.2963679
51
76.0946108
0
ARC
8
front_labelLayer
10
371.6817389
20
343.364945
40
55.1038028
50
71.9613298
51
76.5918314
0
ARC
8
front_labelLayer
10
375.95675
20
361.4999527
40
36.4718166
50
76.518344
51
83.0216908
0
ARC
8
front_labelLayer
10
377.4458818
20
373.4753585
40
24.404213
50
83.0760788
51
89.7926955
0
ARC
8
front_labelLayer
10
377.3968713
20
382.5764798
40
15.3035481
50
89.4859168
51
103.4197425
0
ARC
8
front_labelLayer
10
376.0171469
20
387.8772368
40
9.8279488
50
102.7677359
51
144.3380323
0
ARC
8
front_labelLayer
10
378.7967219
20
386.088835
40
13.129982
50
145.0688633
51
162.1801762
0
ARC
8
front_labelLayer
10
388.3269082
20
382.8823989
40
23.1845922
50
161.8437576
51
171.7847012
0
ARC
8
front_labelLayer
10
403.8708369
20
380.5477446
40
38.9027202
50
171.6527762
51
178.4383523
0
ARC
8
front_labelLayer
10
418.5322399
20
379.9225622
40
53.5761897
50
178.1973135
51
180.0231701
0
LINE
8
front_labelLayer
10
440.8349609
20
375.5942556
11
439.2626953
21
365.0669119
0
LINE
8
front_labelLayer
10
409.0478515
20
340.3208181
11
409.0478515
21
300.1255056
0
LINE
8
front_labelLayer
10
409.0478515
20
300.1255056
11
397.7001953
21
300.1255056
0
LINE
8
front_labelLayer
10
397.7001953
20
300.1255056
11
397.7001953
21
375.0473806
0
LINE
8
front_labelLayer
10
397.7001953
20
375.0473806
11
407.0654297
21
375.0473806
0
LINE
8
front_labelLayer
10
407.0654297
20
375.0473806
11
408.3642578
21
361.1704275
0
LINE
8
front_labelLayer
10
408.3642578
20
361.1704275
11
408.9111328
21
361.1704275
0
ARC
8
front_labelLayer
10
431.9963597
20
324.3194067
40
52.0952916
50
84.9922918
51
90.1281045
0
ARC
8
front_labelLayer
10
433.2474443
20
338.3364133
40
38.0225883
50
78.4891867
51
85.0266006
0
ARC
8
front_labelLayer
10
428.3915348
20
316.2505446
40
50.0121969
50
77.4453819
51
81.6360333
0
ARC
8
front_labelLayer
10
430.5705164
20
331.2700768
40
34.8354678
50
81.5884211
51
87.1916674
0
ARC
8
front_labelLayer
10
431.0437678
20
339.4765482
40
26.615759
50
87.3436627
51
89.9659819
0
ARC
8
front_labelLayer
10
430.9338131
20
346.4305752
40
19.6621295
50
89.6335388
51
137.0880794
0
ARC
8
front_labelLayer
10
435.7592031
20
341.0042791
40
26.8996899
50
135.6209022
51
138.8377281
0
ARC
8
front_labelLayer
10
435.0521799
20
341.6944064
40
25.9132276
50
138.9575744
51
174.542225
0
ARC
8
front_labelLayer
10
443.4915933
20
340.3738839
40
34.4437826
50
173.6907607
51
180.0882728
0
ARC
8
front_labelLayer
10
442.298352
20
342.3602197
40
38.3214081
50
139.4139304
51
150.603287
0
ARC
8
front_labelLayer
10
435.4272957
20
348.2479948
40
29.2728001
50
124.2321444
51
139.4161077
0
ARC
8
front_labelLayer
10
431.75341
20
353.793711
40
22.6212107
50
89.6796638
51
124.4405648
0
ARC
8
front_labelLayer
10
460.9026352
20
337.2596472
40
58.6152983
50
349.1761919
51
0.3862627
0
ARC
8
front_labelLayer
10
480.6370252
20
333.3255594
40
38.4935417
50
330.2507058
51
349.4116462
0
ARC
8
front_labelLayer
10
486.7102668
20
330.1689293
40
31.6555623
50
318.1439748
51
329.7566201
0
ARC
8
front_labelLayer
10
487.8064058
20
329.2904828
40
30.253077
50
278.8959172
51
317.9979127
0
ARC
8
front_labelLayer
10
484.9820828
20
342.8220675
40
44.0641679
50
269.7502884
51
279.8033231
0
ARC
8
front_labelLayer
10
484.5240333
20
335.197853
40
36.4405058
50
253.5436942
51
270.4182472
0
ARC
8
front_labelLayer
10
483.3110048
20
330.5055473
40
31.5972193
50
238.8115538
51
253.2428321
0
ARC
8
front_labelLayer
10
482.9195144
20
329.7182635
40
30.7210739
50
207.7947026
51
238.6757969
0
ARC
8
front_labelLayer
10
488.5373252
20
333.1588776
40
37.2975103
50
205.6560272
51
208.4461157
0
ARC
8
front_labelLayer
10
492.8639906
20
334.9616287
40
41.9788748
50
188.9102456
51
205.3171439
0
ARC
8
front_labelLayer
10
507.4460177
20
337.4313523
40
56.7677466
50
179.7744708
51
189.0932851
0
ARC
8
front_labelLayer
10
509.5970505
20
338.0538766
40
58.9196911
50
169.244295
51
180.3880781
0
ARC
8
front_labelLayer
10
489.5883961
20
342.0088635
40
38.5247629
50
150.7111495
51
169.4695429
0
ARC
8
front_labelLayer
10
483.201008
20
345.2890204
40
31.3503266
50
138.1759443
51
150.2287398
0
ARC
8
front_labelLayer
10
482.1385114
20
346.1043615
40
30.0150216
50
99.1759362
51
137.9832745
0
ARC
8
front_labelLayer
10
485.0628918
20
332.3419049
40
44.0731432
50
89.7326341
51
100.0759821
0
ARC
8
front_labelLayer
10
485.6473735
20
338.2854435
40
38.1310064
50
73.5222741
51
90.5692239
0
ARC
8
front_labelLayer
10
487.8835322
20
346.4099996
40
29.7062872
50
41.1445665
51
73.2133839
0
ARC
8
front_labelLayer
10
483.6148886
20
342.7411594
40
35.3347811
50
13.5014345
51
41.0703419
0
ARC
8
front_labelLayer
10
467.1230289
20
338.4254584
40
52.379602
50
1.1277205
51
13.8800023
0
ARC
8
front_labelLayer
10
452.9181145
20
337.6642249
40
66.5984876
50
359.9918937
51
1.541981
0
ARC
8
front_labelLayer
10
519.9000596
20
337.3599004
40
57.4642929
50
179.7059614
51
187.9160792
0
ARC
8
front_labelLayer
10
498.8239614
20
334.3323396
40
36.1721961
50
187.7639264
51
200.0976861
0
ARC
8
front_labelLayer
10
487.2132102
20
330.0781465
40
23.8066125
50
200.0845924
51
216.9131599
0
ARC
8
front_labelLayer
10
482.9733692
20
327.0507021
40
18.5987927
50
217.3009565
51
261.7099088
0
ARC
8
front_labelLayer
10
484.9416455
20
336.443108
40
28.1831001
50
260.5033157
51
270.2476812
0
ARC
8
front_labelLayer
10
485.3173337
20
334.616735
40
26.3576863
50
269.4481622
51
284.7255711
0
ARC
8
front_labelLayer
10
487.4039159
20
326.8782792
40
18.343088
50
284.5662313
51
322.6333823
0
ARC
8
front_labelLayer
10
482.5253735
20
330.4028078
40
24.3600042
50
323.0089273
51
342.6390459
0
ARC
8
front_labelLayer
10
468.5717114
20
334.9632643
40
39.0392461
50
342.3615708
51
353.7537585
0
ARC
8
front_labelLayer
10
447.985393
20
337.4446735
40
59.7737653
50
353.5363099
51
0.2014183
0
ARC
8
front_labelLayer
10
451.1395283
20
337.9437865
40
56.6199982
50
359.7075655
51
7.8972718
0
ARC
8
front_labelLayer
10
471.8753404
20
340.9164569
40
35.6725351
50
7.7439937
51
20.0690172
0
ARC
8
front_labelLayer
10
483.4301782
20
345.1566485
40
23.3642849
50
20.025702
51
37.4350551
0
ARC
8
front_labelLayer
10
487.2639667
20
347.8770484
40
18.6672422
50
37.9577659
51
80.4006191
0
ARC
8
front_labelLayer
10
485.0853443
20
338.156258
40
28.6200777
50
79.345342
51
90.3174829
0
ARC
8
front_labelLayer
10
484.6819435
20
339.7708961
40
27.0061098
50
89.4805985
51
103.8805036
0
ARC
8
front_labelLayer
10
482.4127325
20
348.4120465
40
18.0733857
50
103.4685244
51
142.3118884
0
ARC
8
front_labelLayer
10
486.8242552
20
345.3095494
40
23.4624441
50
142.9025718
51
162.3749606
0
ARC
8
front_labelLayer
10
500.7249791
20
340.6771684
40
38.1138248
50
162.0653144
51
173.1674868
0
ARC
8
front_labelLayer
10
522.3998767
20
337.9126583
40
59.9639079
50
173.0086146
51
180.2463832
0
LINE
8
front_labelLayer
10
602.0263672
20
300.1255056
11
590.6787109
21
300.1255056
0
LINE
8
front_labelLayer
10
590.6787109
20
300.1255056
11
590.6787109
21
348.5923025
0
LINE
8
front_labelLayer
10
550.7568359
20
339.4321462
11
550.7568359
21
300.1255056
0
LINE
8
front_labelLayer
10
550.7568359
20
300.1255056
11
539.4091797
21
300.1255056
0
LINE
8
front_labelLayer
10
539.4091797
20
300.1255056
11
539.4091797
21
375.0473806
0
LINE
8
front_labelLayer
10
539.4091797
20
375.0473806
11
548.6376953
21
375.0473806
0
LINE
8
front_labelLayer
10
548.6376953
20
375.0473806
11
550.4833984
21
364.7934744
0
LINE
8
front_labelLayer
10
550.4833984
20
364.7934744
11
551.0302734
21
364.7934744
0
LINE
8
front_labelLayer
10
602.0263672
20
349.0024587
11
602.0263672
21
300.1255056
0
ARC
8
front_labelLayer
10
558.6023004
20
348.7762617
40
32.0769381
50
359.6714105
51
8.6877319
0
ARC
8
front_labelLayer
10
570.4908947
20
350.6617175
40
20.0400696
50
8.4931428
51
22.6579856
0
ARC
8
front_labelLayer
10
576.5311488
20
353.1718581
40
13.4990214
50
22.7024409
51
42.341958
0
ARC
8
front_labelLayer
10
577.2101049
20
353.4772747
40
12.7935604
50
43.3790912
51
71.5386078
0
ARC
8
front_labelLayer
10
574.6711618
20
346.3828078
40
20.3275657
50
71.0828068
51
84.3691102
0
ARC
8
front_labelLayer
10
573.5314664
20
336.6927527
40
30.0832482
50
84.019784
51
90.1510671
0
ARC
8
front_labelLayer
10
573.2083719
20
332.4326311
40
34.3441303
50
89.593308
51
100.3717885
0
ARC
8
front_labelLayer
10
570.7813018
20
345.166676
40
21.3814098
50
100.117643
51
118.160255
0
ARC
8
front_labelLayer
10
568.3354242
20
349.9628433
40
15.9990127
50
118.5439422
51
139.192683
0
ARC
8
front_labelLayer
10
570.4680989
20
348.5317959
40
18.5510728
50
140.1519159
51
160.3146392
0
ARC
8
front_labelLayer
10
583.3465497
20
343.7080766
40
32.3023981
50
159.9534372
51
171.3801143
0
ARC
8
front_labelLayer
10
604.3837845
20
340.3264135
40
53.6091821
50
171.1765819
51
178.321761
0
ARC
8
front_labelLayer
10
623.4531612
20
339.4621672
40
72.6963314
50
178.08106
51
180.0236611
0
ARC
8
front_labelLayer
10
570.4421689
20
352.4992781
40
22.9775749
50
116.9442907
51
147.6525654
0
ARC
8
front_labelLayer
10
572.8344184
20
348.4979132
40
27.630414
50
115.8072299
51
117.6067339
0
ARC
8
front_labelLayer
10
574.0565373
20
345.6481474
40
30.7283188
50
94.3226692
51
115.5454383
0
ARC
8
front_labelLayer
10
574.7920226
20
339.258196
40
37.1563823
50
89.9578824
51
94.7108931
0
ARC
8
front_labelLayer
10
575.0960115
20
331.6129494
40
44.802473
50
80.5585369
51
90.3538296
0
ARC
8
front_labelLayer
10
577.8958861
20
347.8308883
40
28.3451177
50
65.1094233
51
80.7638231
0
ARC
8
front_labelLayer
10
581.1688069
20
355.0803204
40
20.3916991
50
46.5584488
51
64.8782379
0
ARC
8
front_labelLayer
10
581.4307492
20
355.8354692
40
19.6660414
50
19.3848836
51
45.5997054
0
ARC
8
front_labelLayer
10
570.0533351
20
351.5664657
40
31.8163952
50
6.963363
51
19.8363399
0
ARC
8
front_labelLayer
10
552.5057421
20
349.2071696
40
49.5210481
50
359.7631491
51
7.21156
0
LINE
8
front_labelLayer
10
659.790039
20
309.49074
11
659.790039
21
300.8090994
0
LINE
8
front_labelLayer
10
626.1572265
20
321.6587087
11
626.1572265
21
366.2290212
0
LINE
8
front_labelLayer
10
626.1572265
20
366.2290212
11
615.4248047
21
366.2290212
0
LINE
8
front_labelLayer
10
615.4248047
20
366.2290212
11
615.4248047
21
371.6977712
0
LINE
8
front_labelLayer
10
615.4248047
20
371.6977712
11
626.1572265
21
376.4145681
0
LINE
8
front_labelLayer
10
626.1572265
20
376.4145681
11
630.9423828
21
392.4106619
0
LINE
8
front_labelLayer
10
630.9423828
20
392.4106619
11
637.5048828
21
392.4106619
0
LINE
8
front_labelLayer
10
637.5048828
20
392.4106619
11
637.5048828
21
375.0473806
0
LINE
8
front_labelLayer
10
637.5048828
20
375.0473806
11
659.243164
21
375.0473806
0
LINE
8
front_labelLayer
10
659.243164
20
375.0473806
11
659.243164
21
366.2290212
0
LINE
8
front_labelLayer
10
659.243164
20
366.2290212
11
637.5048828
21
366.2290212
0
LINE
8
front_labelLayer
10
637.5048828
20
366.2290212
11
637.5048828
21
322.1372244
0
ARC
8
front_labelLayer
10
649.6139537
20
345.3907569
40
37.2672856
50
269.8803558
51
278.3028266
0
ARC
8
front_labelLayer
10
649.9683887
20
342.4942945
40
34.3500662
50
278.4154894
51
279.0080333
0
ARC
8
front_labelLayer
10
645.7872528
20
369.2046861
40
61.3856976
50
278.9589777
51
280.5104362
0
ARC
8
front_labelLayer
10
649.7721399
20
347.8232845
40
39.6361419
50
280.4847817
51
282.6268061
0
ARC
8
front_labelLayer
10
653.2672277
20
332.2955734
40
23.7199548
50
282.5876676
51
285.5794865
0
ARC
8
front_labelLayer
10
655.0192587
20
325.8519648
40
17.0425945
50
285.7238228
51
286.2561912
0
ARC
8
front_labelLayer
10
655.019182
20
310.8997346
40
11.1616305
50
287.9888178
51
295.3048061
0
ARC
8
front_labelLayer
10
652.3270974
20
319.0445218
40
19.7397263
50
283.3069325
51
288.1197846
0
ARC
8
front_labelLayer
10
649.4831823
20
330.9073775
40
31.9386749
50
280.0069979
51
283.3735148
0
ARC
8
front_labelLayer
10
647.5800527
20
341.2354787
40
42.4404282
50
279.1863103
51
280.1142957
0
ARC
8
front_labelLayer
10
646.4123062
20
347.8775656
40
49.1838387
50
275.5260418
51
279.2939399
0
ARC
8
front_labelLayer
10
647.7285425
20
334.1295166
40
35.3729349
50
270.8932508
51
275.5483828
0
ARC
8
front_labelLayer
10
647.8939089
20
327.8448576
40
29.0865396
50
270.0031496
51
270.76054
0
ARC
8
front_labelLayer
10
647.4375954
20
328.3931984
40
29.6384179
50
253.7847946
51
270.8852527
0
ARC
8
front_labelLayer
10
643.9262311
20
316.4181101
40
17.1591915
50
190.3817658
51
253.8772402
0
ARC
8
front_labelLayer
10
661.8235966
20
321.2572422
40
35.6686297
50
179.3550965
51
192.8477623
0
ARC
8
front_labelLayer
10
660.3548615
20
321.9943131
40
22.8504256
50
179.6416581
51
189.7505877
0
ARC
8
front_labelLayer
10
652.2882196
20
320.55553
40
14.6567318
50
189.5479527
51
205.7873568
0
ARC
8
front_labelLayer
10
648.9731591
20
319.0268525
40
11.0069741
50
206.129432
51
221.4084012
0
ARC
8
front_labelLayer
10
648.6014607
20
318.7448145
40
10.5417048
50
221.5949199
51
262.3505154
0
ARC
8
front_labelLayer
10
649.48549
20
323.2908191
40
15.1673513
50
261.3266155
51
270.1913072
0
LINE
8
left_outsideCutPath
10
1006
20
703
11
1006
21
660.125
0
LINE
8
left_outsideCutPath
10
1006
20
660.125
11
1003
21
660.125
0
LINE
8
left_outsideCutPath
10
1003
20
660.125
11
1003
21
612.875
0
LINE
8
left_outsideCutPath
10
1003
20
612.875
11
1006
21
612.875
0
LINE
8
left_outsideCutPath
10
1006
20
612.875
11
1006
21
565.625
0
LINE
8
left_outsideCutPath
10
1006
20
565.625
11
1003
21
565.625
0
LINE
8
left_outsideCutPath
10
1003
20
565.625
11
1003
21
518.375
0
LINE
8
left_outsideCutPath
10
1003
20
518.375
11
1006
21
518.375
0
LINE
8
left_outsideCutPath
10
1006
20
518.375
11
1006
21
471.125
0
LINE
8
left_outsideCutPath
10
1006
20
471.125
11
1003
21
471.125
0
LINE
8
left_outsideCutPath
10
1003
20
471.125
11
1003
21
423.875
0
LINE
8
left_outsideCutPath
10
1003
20
423.875
11
1006
21
423.875
0
LINE
8
left_outsideCutPath
10
1006
20
423.875
11
1006
21
376.625
0
LINE
8
left_outsideCutPath
10
1006
20
376.625
11
1003
21
376.625
0
LINE
8
left_outsideCutPath
10
1003
20
376.625
11
1003
21
329.375
0
LINE
8
left_outsideCutPath
10
1003
20
329.375
11
1006
21
329.375
0
LINE
8
left_outsideCutPath
10
1006
20
329.375
11
1006
21
282.125
0
LINE
8
left_outsideCutPath
10
1006
20
282.125
11
1003
21
282.125
0
LINE
8
left_outsideCutPath
10
1003
20
282.125
11
1003
21
234.875
0
LINE
8
left_outsideCutPath
10
1003
20
234.875
11
1006
21
234.875
0
LINE
8
left_outsideCutPath
10
1006
20
234.875
11
1006
21
187.625
0
LINE
8
left_outsideCutPath
10
1006
20
187.625
11
1003
21
187.625
0
LINE
8
left_outsideCutPath
10
1003
20
187.625
11
1003
21
140.375
0
LINE
8
left_outsideCutPath
10
1003
20
140.375
11
1006
21
140.375
0
LINE
8
left_outsideCutPath
10
1006
20
140.375
11
1006
21
93.125
0
LINE
8
left_outsideCutPath
10
1006
20
93.125
11
1003
21
93.125
0
LINE
8
left_outsideCutPath
10
1003
20
93.125
11
1003
21
45.875
0
LINE
8
left_outsideCutPath
10
1003
20
45.875
11
1006
21
45.875
0
LINE
8
left_outsideCutPath
10
1006
20
45.875
11
1006
21
3
0
LINE
8
left_outsideCutPath
10
1006
20
3
11
1029.375
21
3
0
LINE
8
left_outsideCutPath
10
1029.375
20
3
11
1029.375
21
6
0
LINE
8
left_outsideCutPath
10
1029.375
20
6
11
1076.625
21
6
0
LINE
8
left_outsideCutPath
10
1076.625
20
6
11
1076.625
21
3
0
LINE
8
left_outsideCutPath
10
1076.625
20
3
11
1100
21
3
0
LINE
8
left_outsideCutPath
10
1100
20
3
11
1100
21
45.875
0
LINE
8
left_outsideCutPath
10
1100
20
45.875
11
1103
21
45.875
0
LINE
8
left_outsideCutPath
10
1103
20
45.875
11
1103
21
93.125
0
LINE
8
left_outsideCutPath
10
1103
20
93.125
11
1100
21
93.125
0
LINE
8
left_outsideCutPath
10
1100
20
93.125
11
1100
21
140.375
0
LINE
8
left_outsideCutPath
10
1100
20
140.375
11
1103
21
140.375
0
LINE
8
left_outsideCutPath
10
1103
20
140.375
11
1103
21
187.625
0
LINE
8
left_outsideCutPath
10
1103
20
187.625
11
1100
21
187.625
0
LINE
8
left_outsideCutPath
10
1100
20
187.625
11
1100
21
234.875
0
LINE
8
left_outsideCutPath
10
1100
20
234.875
11
1103
21
234.875
0
LINE
8
left_outsideCutPath
10
1103
20
234.875
11
1103
21
282.125
0
LINE
8
left_outsideCutPath
10
1103
20
282.125
11
1100
21
282.125
0
LINE
8
left_outsideCutPath
10
1100
20
282.125
11
1100
21
329.375
0
LINE
8
left_outsideCutPath
10
1100
20
329.375
11
1103
21
329.375
0
LINE
8
left_outsideCutPath
10
1103
20
329.375
11
1103
21
376.625
0
LINE
8
left_outsideCutPath
10
1103
20
376.625
11
1100
21
376.625
0
LINE
8
left_outsideCutPath
10
1100
20
376.625
11
1100
21
423.875
0
LINE
8
left_outsideCutPath
10
1100
20
423.875
11
1103
21
423.875
0
LINE
8
left_outsideCutPath
10
1103
20
423.875
11
1103
21
471.125
0
LINE
8
left_outsideCutPath
10
1103
20
471.125
11
1100
21
471.125
0
LINE
8
left_outsideCutPath
10
1100
20
471.125
11
1100
21
518.375
0
LINE
8
left_outsideCutPath
10
1100
20
518.375
11
1103
21
518.375
0
LINE
8
left_outsideCutPath
10
1103
20
518.375
11
1103
21
565.625
0
LINE
8
left_outsideCutPath
10
1103
20
565.625
11
1100
21
565.625
0
LINE
8
left_outsideCutPath
10
1100
20
565.625
11
1100
21
612.875
0
LINE
8
left_outsideCutPath
10
1100
20
612.875
11
1103
21
612.875
0
LINE
8
left_outsideCutPath
10
1103
20
612.875
11
1103
21
660.125
0
LINE
8
left_outsideCutPath
10
1103
20
660.125
11
1100
21
660.125
0
LINE
8
left_outsideCutPath
10
1100
20
660.125
11
1100
21
703
0
LINE
8
left_outsideCutPath
10
1100
20
703
11
1076.625
21
703
0
LINE
8
left_outsideCutPath
10
1076.625
20
703
11
1076.625
21
700
0
LINE
8
left_outsideCutPath
10
1076.625
20
700
11
1029.375
21
700
0
LINE
8
left_outsideCutPath
10
1029.375
20
700
11
1029.375
21
703
0
LINE
8
left_outsideCutPath
10
1029.375
20
703
11
1006
21
703
0
LINE
8
left_labelLayer
10
1040.6318359
20
360.6418132
11
1040.6318359
21
345.4465007
0
LINE
8
left_labelLayer
10
1040.6318359
20
345.4465007
11
1039.0107422
21
345.4465007
0
LINE
8
left_labelLayer
10
1039.0107422
20
345.4465007
11
1039.0107422
21
360.6418132
0
LINE
8
left_labelLayer
10
1039.0107422
20
360.6418132
11
1040.6318359
21
360.6418132
0
LINE
8
left_labelLayer
10
1052.5263672
20
351.5304851
11
1052.5263672
21
350.5050945
0
LINE
8
left_labelLayer
10
1052.5263672
20
350.5050945
11
1045.1533203
21
350.5050945
0
LINE
8
left_labelLayer
10
1052.0673828
20
347.3898601
11
1052.0673828
21
345.9445476
0
LINE
8
left_labelLayer
10
1045.1923828
20
351.8234538
11
1050.7880859
21
351.8234538
0
ARC
8
left_labelLayer
10
1048.5375163
20
351.5504518
40
6.2994891
50
256.0087864
51
270.4848217
0
ARC
8
left_labelLayer
10
1048.0787904
20
349.7695846
40
4.4605713
50
223.5465745
51
256.1956946
0
ARC
8
left_labelLayer
10
1048.331848
20
349.9535108
40
4.7708826
50
194.0877272
51
223.0538182
0
ARC
8
left_labelLayer
10
1050.6505483
20
350.5875915
40
7.1743644
50
181.3574552
51
194.4920046
0
ARC
8
left_labelLayer
10
1052.7337444
20
350.7083549
40
9.2601118
50
179.988753
51
181.7991074
0
ARC
8
left_labelLayer
10
1051.9857631
20
350.7672736
40
8.5123218
50
168.9539202
51
180.3843452
0
ARC
8
left_labelLayer
10
1049.2056782
20
351.3333483
40
5.6753298
50
149.4070939
51
169.185387
0
ARC
8
left_labelLayer
10
1048.4311046
20
351.7425996
40
4.8004737
50
140.1056143
51
148.906731
0
ARC
8
left_labelLayer
10
1047.9552283
20
352.1813347
40
4.1540931
50
92.4762693
51
140.5386367
0
ARC
8
left_labelLayer
10
1048.1672793
20
350.6142695
40
5.7306699
50
89.9638154
51
93.9176162
0
ARC
8
left_labelLayer
10
1048.2178771
20
351.4063084
40
4.9388532
50
74.2125965
51
90.5450096
0
ARC
8
left_labelLayer
10
1048.5272118
20
352.5460349
40
3.7579798
50
41.2064721
51
74.0232652
0
ARC
8
left_labelLayer
10
1047.9413907
20
352.0390501
40
4.5327076
50
11.5994275
51
41.1496059
0
ARC
8
left_labelLayer
10
1045.9285231
20
351.5748451
40
6.5979931
50
359.6147824
51
12.033632
0
ARC
8
left_labelLayer
10
1051.6585018
20
350.6350784
40
6.50648
50
181.1447089
51
190.800699
0
ARC
8
left_labelLayer
10
1049.3630811
20
350.182357
40
4.1669111
50
190.6005651
51
206.0275216
0
ARC
8
left_labelLayer
10
1048.3475131
20
349.7022419
40
3.0436958
50
206.2950304
51
222.5557993
0
ARC
8
left_labelLayer
10
1048.2575252
20
349.6551265
40
2.9456606
50
223.0645132
51
258.1401291
0
ARC
8
left_labelLayer
10
1048.6157671
20
351.1302218
40
4.4631448
50
257.5311717
51
270.4319476
0
ARC
8
left_labelLayer
10
1048.6197666
20
355.2290413
40
8.5618888
50
270.1983999
51
292.2090433
0
ARC
8
left_labelLayer
10
1048.2083414
20
356.410503
40
9.8114322
50
291.8255178
51
293.1612948
0
ARC
8
left_labelLayer
10
1048.1889046
20
354.8703356
40
9.7320237
50
287.9023108
51
293.4861519
0
ARC
8
left_labelLayer
10
1048.8948818
20
352.6921442
40
7.4422823
50
281.9936008
51
287.8851423
0
ARC
8
left_labelLayer
10
1049.0659954
20
352.0771114
40
6.8052323
50
275.9054125
51
281.6604196
0
ARC
8
left_labelLayer
10
1048.7234705
20
355.2742317
40
10.0206339
50
271.9119633
51
275.9726911
0
ARC
8
left_labelLayer
10
1048.5984511
20
358.4584667
40
13.2072806
50
269.9668962
51
271.9931374
0
ARC
8
left_labelLayer
10
1048.1202599
20
351.7921135
40
3.1955542
50
89.4422423
51
106.2089652
0
ARC
8
left_labelLayer
10
1047.928013
20
352.4930778
40
2.4688141
50
106.4657148
51
137.9176368
0
ARC
8
left_labelLayer
10
1048.4791952
20
352.0090489
40
3.2023031
50
138.0994865
51
160.5866232
0
ARC
8
left_labelLayer
10
1049.8960088
20
351.487829
40
4.7118531
50
160.335354
51
172.5315141
0
ARC
8
left_labelLayer
10
1051.291158
20
351.2642972
40
6.1243541
50
172.1545568
51
174.7615716
0
ARC
8
left_labelLayer
10
1045.2640618
20
351.8548335
40
5.5241133
50
359.6745303
51
8.922462
0
ARC
8
left_labelLayer
10
1047.2379464
20
352.1764473
40
3.5242521
50
8.7342472
51
23.2771776
0
ARC
8
left_labelLayer
10
1048.1750418
20
352.5698155
40
2.5079976
50
23.4821335
51
39.7072171
0
ARC
8
left_labelLayer
10
1048.4052195
20
352.7420632
40
2.220922
50
40.0822985
51
80.624323
0
ARC
8
left_labelLayer
10
1048.1682893
20
351.655985
40
3.3315743
50
79.646833
51
90.291024
0
LINE
8
left_labelLayer
10
1060.1142578
20
356.1496257
11
1060.1142578
21
354.8898601
0
LINE
8
left_labelLayer
10
1060.1142578
20
354.8898601
11
1057.3896484
21
354.8898601
0
LINE
8
left_labelLayer
10
1057.3896484
20
354.8898601
11
1057.3896484
21
345.4465007
0
LINE
8
left_labelLayer
10
1057.3896484
20
345.4465007
11
1055.7685547
21
345.4465007
0
LINE
8
left_labelLayer
10
1055.7685547
20
345.4465007
11
1055.7685547
21
354.8898601
0
LINE
8
left_labelLayer
10
1055.7685547
20
354.8898601
11
1053.8544922
21
354.8898601
0
LINE
8
left_labelLayer
10
1053.8544922
20
354.8898601
11
1053.8544922
21
355.622282
0
LINE
8
left_labelLayer
10
1053.8544922
20
355.622282
11
1055.7685547
21
356.2082195
0
LINE
8
left_labelLayer
10
1055.7685547
20
356.2082195
11
1055.7685547
21
356.8039226
0
LINE
8
left_labelLayer
10
1061.2080078
20
360.4074382
11
1060.7880859
21
359.1086101
0
LINE
8
left_labelLayer
10
1057.3896484
20
356.8429851
11
1057.3896484
21
356.1496257
0
LINE
8
left_labelLayer
10
1057.3896484
20
356.1496257
11
1060.1142578
21
356.1496257
0
ARC
8
left_labelLayer
10
1062.3382836
20
356.8794516
40
6.5701631
50
167.5776019
51
180.6586728
0
ARC
8
left_labelLayer
10
1059.2487771
20
357.5997452
40
3.3982616
50
141.7433952
51
168.2322111
0
ARC
8
left_labelLayer
10
1058.7457421
20
357.8622911
40
2.8426424
50
98.25515
51
139.620332
0
ARC
8
left_labelLayer
10
1059.1874151
20
355.821935
40
4.9273822
50
89.6697013
51
99.9314429
0
ARC
8
left_labelLayer
10
1059.1886476
20
355.5290279
40
5.2202779
50
81.5640782
51
89.7017613
0
ARC
8
left_labelLayer
10
1058.8216552
20
352.9686645
40
7.8067887
50
75.9739836
51
81.6564925
0
ARC
8
left_labelLayer
10
1058.1918263
20
350.3562892
40
10.4939481
50
73.2963798
51
76.0945964
0
ARC
8
left_labelLayer
10
1058.3504689
20
351.6235867
40
7.8719472
50
71.9613356
51
76.5918517
0
ARC
8
left_labelLayer
10
1058.961179
20
354.2142902
40
5.2102479
50
76.5183435
51
83.0217048
0
ARC
8
left_labelLayer
10
1059.1739111
20
355.9250858
40
3.4862815
50
83.076037
51
89.7927205
0
ARC
8
left_labelLayer
10
1059.1669086
20
357.2252028
40
2.1862297
50
89.4859359
51
103.4197073
0
ARC
8
left_labelLayer
10
1058.9698048
20
357.9824617
40
1.4039934
50
102.7677419
51
144.3380185
0
ARC
8
left_labelLayer
10
1059.3668861
20
357.7269769
40
1.875711
50
145.0688682
51
162.1801871
0
ARC
8
left_labelLayer
10
1060.7283572
20
357.2689105
40
3.3121003
50
161.8437828
51
171.7846792
0
ARC
8
left_labelLayer
10
1062.9489299
20
356.9353905
40
5.5575582
50
171.6528007
51
178.4383441
0
ARC
8
left_labelLayer
10
1065.0436147
20
356.8460803
40
7.6539668
50
178.1973669
51
180.0231697
0
LINE
8
left_labelLayer
10
1066.9892578
20
346.7843913
11
1066.9892578
21
345.544157
0
LINE
8
left_labelLayer
10
1062.1845703
20
348.5226726
11
1062.1845703
21
354.8898601
0
LINE
8
left_labelLayer
10
1062.1845703
20
354.8898601
11
1060.6513672
21
354.8898601
0
LINE
8
left_labelLayer
10
1060.6513672
20
354.8898601
11
1060.6513672
21
355.6711101
0
LINE
8
left_labelLayer
10
1060.6513672
20
355.6711101
11
1062.1845703
21
356.3449382
0
LINE
8
left_labelLayer
10
1062.1845703
20
356.3449382
11
1062.8681641
21
358.6300945
0
LINE
8
left_labelLayer
10
1062.8681641
20
358.6300945
11
1063.8056641
21
358.6300945
0
LINE
8
left_labelLayer
10
1063.8056641
20
358.6300945
11
1063.8056641
21
356.1496257
0
LINE
8
left_labelLayer
10
1063.8056641
20
356.1496257
11
1066.9111328
21
356.1496257
0
LINE
8
left_labelLayer
10
1066.9111328
20
356.1496257
11
1066.9111328
21
354.8898601
0
LINE
8
left_labelLayer
10
1066.9111328
20
354.8898601
11
1063.8056641
21
354.8898601
0
LINE
8
left_labelLayer
10
1063.8056641
20
354.8898601
11
1063.8056641
21
348.591032
0
ARC
8
left_labelLayer
10
1065.5355326
20
351.9129617
40
5.3238944
50
269.8803417
51
278.3028182
0
ARC
8
left_labelLayer
10
1065.5851793
20
351.5056089
40
4.9136514
50
278.4158959
51
279.0076561
0
ARC
8
left_labelLayer
10
1064.9888291
20
355.3151576
40
8.7695902
50
278.9589695
51
280.5103918
0
ARC
8
left_labelLayer
10
1065.5581652
20
352.2602916
40
5.6621249
50
280.4847522
51
282.6268451
0
ARC
8
left_labelLayer
10
1066.0574548
20
350.0421168
40
3.3884538
50
282.5876165
51
285.5795336
0
ARC
8
left_labelLayer
10
1066.3091142
20
349.1168484
40
2.429599
50
285.7231888
51
286.2566654
0
ARC
8
left_labelLayer
10
1066.3077044
20
346.9856817
40
1.5945246
50
287.9888406
51
295.3048016
0
ARC
8
left_labelLayer
10
1065.9231098
20
348.1492631
40
2.8200086
50
283.3069861
51
288.1197567
0
ARC
8
left_labelLayer
10
1065.516856
20
349.8438763
40
4.5626327
50
280.0069961
51
283.3735389
0
ARC
8
left_labelLayer
10
1065.2450481
20
351.3189605
40
6.0625179
50
279.1862135
51
280.1142603
0
ARC
8
left_labelLayer
10
1065.0781679
20
352.2681084
40
7.0261467
50
275.5260122
51
279.2939725
0
ARC
8
left_labelLayer
10
1065.2661877
20
350.304196
40
5.0532558
50
270.8932457
51
275.5483966
0
ARC
8
left_labelLayer
10
1065.2897955
20
349.4070606
40
4.1558726
50
270.0033586
51
270.7606301
0
ARC
8
left_labelLayer
10
1065.2246229
20
349.4847407
40
4.2340578
50
253.784789
51
270.8852547
0
ARC
8
left_labelLayer
10
1064.7229997
20
347.7740159
40
2.4513133
50
190.3817699
51
253.8772374
0
ARC
8
left_labelLayer
10
1067.2797711
20
348.465321
40
5.0955236
50
179.3551054
51
192.8477577
0
ARC
8
left_labelLayer
10
1067.0699633
20
348.5706171
40
3.2643631
50
179.6416773
51
189.7505556
0
ARC
8
left_labelLayer
10
1065.9175733
20
348.3650768
40
2.093823
50
189.5479676
51
205.7873396
0
ARC
8
left_labelLayer
10
1065.4439874
20
348.1466914
40
1.5724225
50
206.1294051
51
221.408398
0
ARC
8
left_labelLayer
10
1065.390889
20
348.1064012
40
1.505957
50
221.5949091
51
262.3505289
0
ARC
8
left_labelLayer
10
1065.5171804
20
348.7558396
40
2.1667729
50
261.3266216
51
270.1912791
0
LINE
8
top_outsideCutPath
10
1109
20
100
11
1109
21
76.625
0
LINE
8
top_outsideCutPath
10
1109
20
76.625
11
1106
21
76.625
0
LINE
8
top_outsideCutPath
10
1106
20
76.625
11
1106
21
29.375
0
LINE
8
top_outsideCutPath
10
1106
20
29.375
11
1109
21
29.375
0
LINE
8
top_outsideCutPath
10
1109
20
29.375
11
1109
21
6
0
LINE
8
top_outsideCutPath
10
1109
20
6
11
1157.125
21
6
0
LINE
8
top_outsideCutPath
10
1157.125
20
6
11
1157.125
21
3
0
LINE
8
top_outsideCutPath
10
1157.125
20
3
11
1204.375
21
3
0
LINE
8
top_outsideCutPath
10
1204.375
20
3
11
1204.375
21
6
0
LINE
8
top_outsideCutPath
10
1204.375
20
6
11
1251.625
21
6
0
LINE
8
top_outsideCutPath
10
1251.625
20
6
11
1251.625
21
3
0
LINE
8
top_outsideCutPath
10
1251.625
20
3
11
1298.875
21
3
0
LINE
8
top_outsideCutPath
10
1298.875
20
3
11
1298.875
21
6
0
LINE
8
top_outsideCutPath
10
1298.875
20
6
11
1346.125
21
6
0
LINE
8
top_outsideCutPath
10
1346.125
20
6
11
1346.125
21
3
0
LINE
8
top_outsideCutPath
10
1346.125
20
3
11
1393.375
21
3
0
LINE
8
top_outsideCutPath
10
1393.375
20
3
11
1393.375
21
6
0
LINE
8
top_outsideCutPath
10
1393.375
20
6
11
1440.625
21
6
0
LINE
8
top_outsideCutPath
10
1440.625
20
6
11
1440.625
21
3
0
LINE
8
top_outsideCutPath
10
1440.625
20
3
11
1487.875
21
3
0
LINE
8
top_outsideCutPath
10
1487.875
20
3
11
1487.875
21
6
0
LINE
8
top_outsideCutPath
10
1487.875
20
6
11
1535.125
21
6
0
LINE
8
top_outsideCutPath
10
1535.125
20
6
11
1535.125
21
3
0
LINE
8
top_outsideCutPath
10
1535.125
20
3
11
1582.375
21
3
0
LINE
8
top_outsideCutPath
10
1582.375
20
3
11
1582.375
21
6
0
LINE
8
top_outsideCutPath
10
1582.375
20
6
11
1629.625
21
6
0
LINE
8
top_outsideCutPath
10
1629.625
20
6
11
1629.625
21
3
0
LINE
8
top_outsideCutPath
10
1629.625
20
3
11
1676.875
21
3
0
LINE
8
top_outsideCutPath
10
1676.875
20
3
11
1676.875
21
6
0
LINE
8
top_outsideCutPath
10
1676.875
20
6
11
1724.125
21
6
0
LINE
8
top_outsideCutPath
10
1724.125
20
6
11
1724.125
21
3
0
LINE
8
top_outsideCutPath
10
1724.125
20
3
11
1771.375
21
3
0
LINE
8
top_outsideCutPath
10
1771.375
20
3
11
1771.375
21
6
0
LINE
8
top_outsideCutPath
10
1771.375
20
6
11
1818.625
21
6
0
LINE
8
top_outsideCutPath
10
1818.625
20
6
11
1818.625
21
3
0
LINE
8
top_outsideCutPath
10
1818.625
20
3
11
1865.875
21
3
0
LINE
8
top_outsideCutPath
10
1865.875
20
3
11
1865.875
21
6
0
LINE
8
top_outsideCutPath
10
1865.875
20
6
11
1913.125
21
6
0
LINE
8
top_outsideCutPath
10
1913.125
20
6
11
1913.125
21
3
0
LINE
8
top_outsideCutPath
10
1913.125
20
3
11
1960.375
21
3
0
LINE
8
top_outsideCutPath
10
1960.375
20
3
11
1960.375
21
6
0
LINE
8
top_outsideCutPath
10
1960.375
20
6
11
2007.625
21
6
0
LINE
8
top_outsideCutPath
10
2007.625
20
6
11
2007.625
21
3
0
LINE
8
top_outsideCutPath
10
2007.625
20
3
11
2054.875
21
3
0
LINE
8
top_outsideCutPath
10
2054.875
20
3
11
2054.875
21
6
0
LINE
8
top_outsideCutPath
10
2054.875
20
6
11
2103
21
6
0
LINE
8
top_outsideCutPath
10
2103
20
6
11
2103
21
29.375
0
LINE
8
top_outsideCutPath
10
2103
20
29.375
11
2106
21
29.375
0
LINE
8
top_outsideCutPath
10
2106
20
29.375
11
2106
21
76.625
0
LINE
8
top_outsideCutPath
10
2106
20
76.625
11
2103
21
76.625
0
LINE
8
top_outsideCutPath
10
2103
20
76.625
11
2103
21
100
0
LINE
8
top_outsideCutPath
10
2103
20
100
11
2054.875
21
100
0
LINE
8
top_outsideCutPath
10
2054.875
20
100
11
2054.875
21
103
0
LINE
8
top_outsideCutPath
10
2054.875
20
103
11
2007.625
21
103
0
LINE
8
top_outsideCutPath
10
2007.625
20
103
11
2007.625
21
100
0
LINE
8
top_outsideCutPath
10
2007.625
20
100
11
1960.375
21
100
0
LINE
8
top_outsideCutPath
10
1960.375
20
100
11
1960.375
21
103
0
LINE
8
top_outsideCutPath
10
1960.375
20
103
11
1913.125
21
103
0
LINE
8
top_outsideCutPath
10
1913.125
20
103
11
1913.125
21
100
0
LINE
8
top_outsideCutPath
10
1913.125
20
100
11
1865.875
21
100
0
LINE
8
top_outsideCutPath
10
1865.875
20
100
11
1865.875
21
103
0
LINE
8
top_outsideCutPath
10
1865.875
20
103
11
1818.625
21
103
0
LINE
8
top_outsideCutPath
10
1818.625
20
103
11
1818.625
21
100
0
LINE
8
top_outsideCutPath
10
1818.625
20
100
11
1771.375
21
100
0
LINE
8
top_outsideCutPath
10
1771.375
20
100
11
1771.375
21
103
0
LINE
8
top_outsideCutPath
10
1771.375
20
103
11
1724.125
21
103
0
LINE
8
top_outsideCutPath
10
1724.125
20
103
11
1724.125
21
100
0
LINE
8
top_outsideCutPath
10
1724.125
20
100
11
1676.875
21
100
0
LINE
8
top_outsideCutPath
10
1676.875
20
100
11
1676.875
21
103
0
LINE
8
top_outsideCutPath
10
1676.875
20
103
11
1629.625
21
103
0
LINE
8
top_outsideCutPath
10
1629.625
20
103
11
1629.625
21
100
0
LINE
8
top_outsideCutPath
10
1629.625
20
100
11
1582.375
21
100
0
LINE
8
top_outsideCutPath
10
1582.375
20
100
11
1582.375
21
103
0
LINE
8
top_outsideCutPath
10
1582.375
20
103
11
1535.125
21
103
0
LINE
8
top_outsideCutPath
10
1535.125
20
103
11
1535.125
21
100
0
LINE
8
top_outsideCutPath
10
1535.125
20
100
11
1487.875
21
100
0
LINE
8
top_outsideCutPath
10
1487.875
20
100
11
1487.875
21
103
0
LINE
8
top_outsideCutPath
10
1487.875
20
103
11
1440.625
21
103
0
LINE
8
top_outsideCutPath
10
1440.625
20
103
11
1440.625
21
100
0
LINE
8
top_outsideCutPath
10
1440.625
20
100
11
1393.375
21
100
0
LINE
8
top_outsideCutPath
10
1393.375
20
100
11
1393.375
21
103
0
LINE
8
top_outsideCutPath
10
1393.375
20
103
11
1346.125
21
103
0
LINE
8
top_outsideCutPath
10
1346.125
20
103
11
1346.125
21
100
0
LINE
8
top_outsideCutPath
10
1346.125
20
100
11
1298.875
21
100
0
LINE
8
top_outsideCutPath
10
1298.875
20
100
11
1298.875
21
103
0
LINE
8
top_outsideCutPath
10
1298.875
20
103
11
1251.625
21
103
0
LINE
8
top_outsideCutPath
10
1251.625
20
103
11
1251.625
21
100
0
LINE
8
top_outsideCutPath
10
1251.625
20
100
11
1204.375
21
100
0
LINE
8
top_outsideCutPath
10
1204.375
20
100
11
1204.375
21
103
0
LINE
8
top_outsideCutPath
10
1204.375
20
103
11
1157.125
21
103
0
LINE
8
top_outsideCutPath
10
1157.125
20
103
11
1157.125
21
100
0
LINE
8
top_outsideCutPath
10
1157.125
20
100
11
1109
21
100
0
LINE
8
top_labelLayer
10
1597.3475735
20
50.1484375
11
1597.3475735
21
48.9082031
0
LINE
8
top_labelLayer
10
1592.542886
20
51.8867188
11
1592.542886
21
58.2539063
0
LINE
8
top_labelLayer
10
1592.542886
20
58.2539063
11
1591.0096829
21
58.2539063
0
LINE
8
top_labelLayer
10
1591.0096829
20
58.2539063
11
1591.0096829
21
59.0351563
0
LINE
8
top_labelLayer
10
1591.0096829
20
59.0351563
11
1592.542886
21
59.7089844
0
LINE
8
top_labelLayer
10
1592.542886
20
59.7089844
11
1593.2264798
21
61.9941406
0
LINE
8
top_labelLayer
10
1593.2264798
20
61.9941406
11
1594.1639798
21
61.9941406
0
LINE
8
top_labelLayer
10
1594.1639798
20
61.9941406
11
1594.1639798
21
59.5136719
0
LINE
8
top_labelLayer
10
1594.1639798
20
59.5136719
11
1597.2694485
21
59.5136719
0
LINE
8
top_labelLayer
10
1597.2694485
20
59.5136719
11
1597.2694485
21
58.2539063
0
LINE
8
top_labelLayer
10
1597.2694485
20
58.2539063
11
1594.1639798
21
58.2539063
0
LINE
8
top_labelLayer
10
1594.1639798
20
58.2539063
11
1594.1639798
21
51.9550781
0
ARC
8
top_labelLayer
10
1595.8938484
20
55.2770078
40
5.3238944
50
269.8803417
51
278.3028182
0
ARC
8
top_labelLayer
10
1595.943495
20
54.869655
40
4.9136514
50
278.4158959
51
279.0076561
0
ARC
8
top_labelLayer
10
1595.3471449
20
58.6792037
40
8.7695902
50
278.9589695
51
280.5103918
0
ARC
8
top_labelLayer
10
1595.9164809
20
55.6243378
40
5.6621249
50
280.4847522
51
282.6268451
0
ARC
8
top_labelLayer
10
1596.4157705
20
53.406163
40
3.3884538
50
282.5876165
51
285.5795336
0
ARC
8
top_labelLayer
10
1596.6674299
20
52.4808945
40
2.429599
50
285.7231888
51
286.2566654
0
ARC
8
top_labelLayer
10
1596.6660201
20
50.3497279
40
1.5945246
50
287.9888406
51
295.3048016
0
ARC
8
top_labelLayer
10
1596.2814255
20
51.5133093
40
2.8200086
50
283.3069861
51
288.1197567
0
ARC
8
top_labelLayer
10
1595.8751717
20
53.2079225
40
4.5626327
50
280.0069961
51
283.3735389
0
ARC
8
top_labelLayer
10
1595.6033638
20
54.6830066
40
6.0625179
50
279.1862135
51
280.1142603
0
ARC
8
top_labelLayer
10
1595.4364836
20
55.6321546
40
7.0261467
50
275.5260122
51
279.2939725
0
ARC
8
top_labelLayer
10
1595.6245034
20
53.6682421
40
5.0532558
50
270.8932457
51
275.5483966
0
ARC
8
top_labelLayer
10
1595.6481112
20
52.7711068
40
4.1558726
50
270.0033586
51
270.7606301
0
ARC
8
top_labelLayer
10
1595.5829386
20
52.8487868
40
4.2340578
50
253.784789
51
270.8852547
0
ARC
8
top_labelLayer
10
1595.0813155
20
51.138062
40
2.4513133
50
190.3817699
51
253.8772374
0
ARC
8
top_labelLayer
10
1597.6380868
20
51.8293671
40
5.0955236
50
179.3551054
51
192.8477577
0
ARC
8
top_labelLayer
10
1597.4282791
20
51.9346632
40
3.2643631
50
179.6416773
51
189.7505556
0
ARC
8
top_labelLayer
10
1596.275889
20
51.729123
40
2.093823
50
189.5479676
51
205.7873396
0
ARC
8
top_labelLayer
10
1595.8023032
20
51.5107376
40
1.5724225
50
206.1294051
51
221.408398
0
ARC
8
top_labelLayer
10
1595.7492047
20
51.4704474
40
1.505957
50
221.5949091
51
262.3505289
0
ARC
8
top_labelLayer
10
1595.8754961
20
52.1198857
40
2.1667729
50
261.3266216
51
270.1912791
0
ARC
8
top_labelLayer
10
1600.3510966
20
54.1154251
40
8.3736204
50
349.1761945
51
0.3862568
0
ARC
8
top_labelLayer
10
1603.1703018
20
53.5534117
40
5.4990771
50
330.2507047
51
349.4116462
0
ARC
8
top_labelLayer
10
1604.0379102
20
53.1024625
40
4.5222197
50
318.143971
51
329.7566252
0
ARC
8
top_labelLayer
10
1604.1944985
20
52.9769728
40
4.3218687
50
278.8959183
51
317.9979086
0
ARC
8
top_labelLayer
10
1603.7910253
20
54.9100479
40
6.2948732
50
269.7502763
51
279.8033236
0
ARC
8
top_labelLayer
10
1603.7255892
20
53.8208856
40
5.2057899
50
253.5436962
51
270.418238
0
ARC
8
top_labelLayer
10
1603.5522954
20
53.1505461
40
4.5138811
50
238.8115441
51
253.242846
0
ARC
8
top_labelLayer
10
1603.4963705
20
53.0380827
40
4.3887236
50
207.7946962
51
238.6757996
0
ARC
8
top_labelLayer
10
1604.2988576
20
53.5295671
40
5.328149
50
205.6559791
51
208.4461025
0
ARC
8
top_labelLayer
10
1604.9170109
20
53.7871364
40
5.9969824
50
188.9102503
51
205.3171481
0
ARC
8
top_labelLayer
10
1607.000162
20
54.1399534
40
8.1096824
50
179.7744696
51
189.0932788
0
ARC
8
top_labelLayer
10
1607.3074511
20
54.2288855
40
8.4171018
50
169.244298
51
180.388077
0
ARC
8
top_labelLayer
10
1604.4490727
20
54.7938822
40
5.5035418
50
150.7111564
51
169.4695354
0
ARC
8
top_labelLayer
10
1603.5365975
20
55.262468
40
4.4786339
50
138.175962
51
150.2287147
0
ARC
8
top_labelLayer
10
1603.3847993
20
55.3789555
40
4.2878596
50
99.175935
51
137.9832793
0
ARC
8
top_labelLayer
10
1603.8025691
20
53.4128875
40
6.2961655
50
89.7326434
51
100.0759878
0
ARC
8
top_labelLayer
10
1603.8860651
20
54.2619676
40
5.4472856
50
73.5222665
51
90.5692191
0
ARC
8
top_labelLayer
10
1604.2055159
20
55.422616
40
4.2437569
50
41.1445735
51
73.2133783
0
ARC
8
top_labelLayer
10
1603.5957123
20
54.8984982
40
5.047824
50
13.5014302
51
41.0703483
0
ARC
8
top_labelLayer
10
1601.2397225
20
54.2819675
40
7.4828084
50
1.1277281
51
13.8799962
0
ARC
8
top_labelLayer
10
1599.2104564
20
54.1732273
40
9.5140701
50
359.991856
51
1.5419431
0
ARC
8
top_labelLayer
10
1608.7793106
20
54.1297462
40
8.2091889
50
179.7059623
51
187.9160759
0
ARC
8
top_labelLayer
10
1605.7684371
20
53.6972383
40
5.1674586
50
187.7639332
51
200.097688
0
ARC
8
top_labelLayer
10
1604.1097575
20
53.0894957
40
3.4009457
50
200.0845876
51
216.9131503
0
ARC
8
top_labelLayer
10
1603.504065
20
52.6570034
40
2.6569704
50
217.300954
51
261.7099073
0
ARC
8
top_labelLayer
10
1603.7852464
20
53.9987696
40
4.0261509
50
260.5033133
51
270.2476938
0
ARC
8
top_labelLayer
10
1603.8389168
20
53.7378676
40
3.765386
50
269.4481646
51
284.7255643
0
ARC
8
top_labelLayer
10
1604.137
20
52.6323715
40
2.620441
50
284.566235
51
322.6333878
0
ARC
8
top_labelLayer
10
1603.4400664
20
53.1358752
40
3.4799996
50
323.0089266
51
342.6390508
0
ARC
8
top_labelLayer
10
1601.4466813
20
53.7873708
40
5.5770392
50
342.3615704
51
353.7537499
0
ARC
8
top_labelLayer
10
1598.5057559
20
54.1418582
40
8.539136
50
353.5363189
51
0.2014064
0
ARC
8
top_labelLayer
10
1598.9563952
20
54.2131599
40
8.0885493
50
359.7075543
51
7.8972827
0
ARC
8
top_labelLayer
10
1601.9186297
20
54.6378247
40
5.0960791
50
7.7440005
51
20.0690174
0
ARC
8
top_labelLayer
10
1603.5693221
20
55.2435663
40
3.3377565
50
20.0257107
51
37.4350558
0
ARC
8
top_labelLayer
10
1604.1170072
20
55.6321958
40
2.6667491
50
37.9577645
51
80.400615
0
ARC
8
top_labelLayer
10
1603.8057766
20
54.2435122
40
4.0885816
50
79.345353
51
90.3174962
0
ARC
8
top_labelLayer
10
1603.7481461
20
54.4741811
40
3.8580087
50
89.4805853
51
103.8805168
0
ARC
8
top_labelLayer
10
1603.4239739
20
55.708624
40
2.5819124
50
103.4685218
51
142.3118841
0
ARC
8
top_labelLayer
10
1604.0541869
20
55.2654126
40
3.3517727
50
142.9025565
51
162.3749748
0
ARC
8
top_labelLayer
10
1606.0400028
20
54.6036421
40
5.4448258
50
162.0652994
51
173.1674849
0
ARC
8
top_labelLayer
10
1609.1364242
20
54.2087102
40
8.5662738
50
173.0086063
51
180.2463739
0
LINE
8
top_labelLayer
10
1613.1874173
20
50.1875
11
1613.0702298
21
50.1875
0
LINE
8
top_labelLayer
10
1613.1874173
20
48.4101563
11
1613.1874173
21
44.0058594
0
LINE
8
top_labelLayer
10
1613.1874173
20
44.0058594
11
1611.5663235
21
44.0058594
0
LINE
8
top_labelLayer
10
1611.5663235
20
44.0058594
11
1611.5663235
21
59.5136719
0
LINE
8
top_labelLayer
10
1611.5663235
20
59.5136719
11
1612.8846829
21
59.5136719
0
LINE
8
top_labelLayer
10
1612.8846829
20
59.5136719
11
1613.1092923
21
58.0488281
0
LINE
8
top_labelLayer
10
1613.1092923
20
58.0488281
11
1613.1874173
21
58.0488281
0
LINE
8
top_labelLayer
10
1613.1874173
20
54.5332031
11
1613.1874173
21
54.171875
0
ARC
8
top_labelLayer
10
1616.5194555
20
53.5322906
40
4.9171322
50
255.7755416
51
270.3185374
0
ARC
8
top_labelLayer
10
1616.3791398
20
52.908873
40
4.2783843
50
245.9801859
51
255.5455587
0
ARC
8
top_labelLayer
10
1616.1073457
20
52.2768094
40
3.5904312
50
215.5850261
51
245.8361642
0
ARC
8
top_labelLayer
10
1597.8496184
20
48.2641304
40
15.3416545
50
2.9503421
51
7.202072
0
ARC
8
top_labelLayer
10
1600.332012
20
48.40302
40
12.8554072
50
0.031806
51
2.9016028
0
ARC
8
top_labelLayer
10
1616.7583614
20
55.5409501
40
4.3636102
50
132.3565004
51
144.9195899
0
ARC
8
top_labelLayer
10
1616.0898956
20
56.2702259
40
3.3743272
50
115.4006137
51
132.3118294
0
ARC
8
top_labelLayer
10
1616.3506412
20
55.6354714
40
4.0597322
50
97.7066187
51
114.8821564
0
ARC
8
top_labelLayer
10
1616.5327473
20
54.4544376
40
5.2545656
50
89.8468529
51
97.9474213
0
ARC
8
top_labelLayer
10
1616.5969639
20
54.7401623
40
4.9690754
50
74.1923688
51
90.5785123
0
ARC
8
top_labelLayer
10
1616.9407955
20
55.9900687
40
3.6727883
50
38.0523474
51
74.0417263
0
ARC
8
top_labelLayer
10
1615.9924523
20
55.2632035
40
4.8676005
50
16.3355866
51
37.9090671
0
ARC
8
top_labelLayer
10
1613.5011028
20
54.4958519
40
7.4742887
50
4.5766667
51
16.6088732
0
ARC
8
top_labelLayer
10
1610.4339674
20
54.1902386
40
10.5562
50
359.9003283
51
4.9018032
0
ARC
8
top_labelLayer
10
1611.4854532
20
54.1157999
40
9.5048639
50
350.6562881
51
0.3380252
0
ARC
8
top_labelLayer
10
1614.7990067
20
53.5522029
40
6.1437972
50
335.8306022
51
350.8254751
0
ARC
8
top_labelLayer
10
1616.2565903
20
52.9230886
40
4.5564622
50
321.3161305
51
335.5436301
0
ARC
8
top_labelLayer
10
1616.8138206
20
52.4690289
40
3.8376919
50
274.0640061
51
321.4081015
0
ARC
8
top_labelLayer
10
1616.5542201
20
54.1134411
40
5.4982118
50
269.9225965
51
275.5481661
0
ARC
8
top_labelLayer
10
1616.2790286
20
53.661148
40
4.6710026
50
89.5904412
51
100.3501858
0
ARC
8
top_labelLayer
10
1615.9459497
20
55.410941
40
2.8898705
50
100.0868045
51
118.1918041
0
ARC
8
top_labelLayer
10
1615.604742
20
56.0764072
40
2.1421965
50
118.5569486
51
141.0243277
0
ARC
8
top_labelLayer
10
1616.1246775
20
55.7096532
40
2.7774022
50
141.8890381
51
160.5973074
0
ARC
8
top_labelLayer
10
1617.9519315
20
55.0391792
40
4.7236842
50
160.289556
51
171.245311
0
ARC
8
top_labelLayer
10
1620.9562922
20
54.5547776
40
7.7667989
50
171.0868428
51
178.3247594
0
ARC
8
top_labelLayer
10
1623.5032069
20
54.4337124
40
10.3162694
50
178.0661888
51
179.4474273
0
ARC
8
top_labelLayer
10
1623.9058937
20
54.1300209
40
10.7185581
50
179.7762696
51
185.7075172
0
ARC
8
top_labelLayer
10
1619.6799083
20
53.694594
40
6.4702325
50
185.5924625
51
194.2050865
0
ARC
8
top_labelLayer
10
1616.9728414
20
52.9920131
40
3.6735677
50
193.9430285
51
208.0218386
0
ARC
8
top_labelLayer
10
1615.8775461
20
52.4348052
40
2.4449999
50
208.5536273
51
217.560509
0
ARC
8
top_labelLayer
10
1615.788309
20
52.3976906
40
2.3517682
50
218.1690497
51
253.8047105
0
ARC
8
top_labelLayer
10
1616.2245143
20
53.7425551
40
3.7651815
50
253.1382373
51
266.8483309
0
ARC
8
top_labelLayer
10
1616.3468354
20
55.1850928
40
5.2124386
50
266.3775722
51
270.0510514
0
ARC
8
top_labelLayer
10
1616.3883921
20
52.7038905
40
2.7314836
50
269.2257021
51
292.0430264
0
ARC
8
top_labelLayer
10
1616.4252482
20
52.4842507
40
2.5145302
50
293.1429539
51
324.135392
0
ARC
8
top_labelLayer
10
1615.8777746
20
52.9477804
40
3.2302402
50
323.1616244
51
325.0154265
0
ARC
8
top_labelLayer
10
1615.2913299
20
53.311426
40
3.9194038
50
325.5753872
51
344.1504659
0
ARC
8
top_labelLayer
10
1613.263118
20
53.9109845
40
6.0342975
50
343.9336407
51
355.1137379
0
ARC
8
top_labelLayer
10
1610.6740804
20
54.1736979
40
8.6364019
50
354.8402115
51
0.1174814
0
ARC
8
top_labelLayer
10
1611.1300398
20
54.2326931
40
8.1805286
50
359.7108288
51
7.8610328
0
ARC
8
top_labelLayer
10
1614.1044857
20
54.6566914
40
5.1760604
50
7.7149579
51
19.885974
0
ARC
8
top_labelLayer
10
1615.7403486
20
55.2475738
40
3.4367535
50
19.8991246
51
35.8980299
0
ARC
8
top_labelLayer
10
1616.4700119
20
55.8001656
40
2.5217497
50
35.4481683
51
85.2266505
0
ARC
8
top_labelLayer
10
1616.3175785
20
54.8442295
40
3.4878056
50
84.0379224
51
90.084786
0
LINE
8
back_outsideCutPath
10
0
20
1406
11
0
21
1363.125
0
LINE
8
back_outsideCutPath
10
0
20
1363.125
11
3
21
1363.125
0
LINE
8
back_outsideCutPath
10
3
20
1363.125
11
3
21
1315.875
0
LINE
8
back_outsideCutPath
10
3
20
1315.875
11
0
21
1315.875
0
LINE
8
back_outsideCutPath
10
0
20
1315.875
11
0
21
1268.625
0
LINE
8
back_outsideCutPath
10
0
20
1268.625
11
3
21
1268.625
0
LINE
8
back_outsideCutPath
10
3
20
1268.625
11
3
21
1221.375
0
LINE
8
back_outsideCutPath
10
3
20
1221.375
11
0
21
1221.375
0
LINE
8
back_outsideCutPath
10
0
20
1221.375
11
0
21
1174.125
0
LINE
8
back_outsideCutPath
10
0
20
1174.125
11
3
21
1174.125
0
LINE
8
back_outsideCutPath
10
3
20
1174.125
11
3
21
1126.875
0
LINE
8
back_outsideCutPath
10
3
20
1126.875
11
0
21
1126.875
0
LINE
8
back_outsideCutPath
10
0
20
1126.875
11
0
21
1079.625
0
LINE
8
back_outsideCutPath
10
0
20
1079.625
11
3
21
1079.625
0
LINE
8
back_outsideCutPath
10
3
20
1079.625
11
3
21
1032.375
0
LINE
8
back_outsideCutPath
10
3
20
1032.375
11
0
21
1032.375
0
LINE
8
back_outsideCutPath
10
0
20
1032.375
11
0
21
985.125
0
LINE
8
back_outsideCutPath
10
0
20
985.125
11
3
21
985.125
0
LINE
8
back_outsideCutPath
10
3
20
985.125
11
3
21
937.875
0
LINE
8
back_outsideCutPath
10
3
20
937.875
11
0
21
937.875
0
LINE
8
back_outsideCutPath
10
0
20
937.875
11
0
21
890.625
0
LINE
8
back_outsideCutPath
10
0
20
890.625
11
3
21
890.625
0
LINE
8
back_outsideCutPath
10
3
20
890.625
11
3
21
843.375
0
LINE
8
back_outsideCutPath
10
3
20
843.375
11
0
21
843.375
0
LINE
8
back_outsideCutPath
10
0
20
843.375
11
0
21
796.125
0
LINE
8
back_outsideCutPath
10
0
20
796.125
11
3
21
796.125
0
LINE
8
back_outsideCutPath
10
3
20
796.125
11
3
21
748.875
0
LINE
8
back_outsideCutPath
10
3
20
748.875
11
0
21
748.875
0
LINE
8
back_outsideCutPath
10
0
20
748.875
11
0
21
706
0
LINE
8
back_outsideCutPath
10
0
20
706
11
51.125
21
706
0
LINE
8
back_outsideCutPath
10
51.125
20
706
11
51.125
21
709
0
LINE
8
back_outsideCutPath
10
51.125
20
709
11
98.375
21
709
0
LINE
8
back_outsideCutPath
10
98.375
20
709
11
98.375
21
706
0
LINE
8
back_outsideCutPath
10
98.375
20
706
11
145.625
21
706
0
LINE
8
back_outsideCutPath
10
145.625
20
706
11
145.625
21
709
0
LINE
8
back_outsideCutPath
10
145.625
20
709
11
192.875
21
709
0
LINE
8
back_outsideCutPath
10
192.875
20
709
11
192.875
21
706
0
LINE
8
back_outsideCutPath
10
192.875
20
706
11
240.125
21
706
0
LINE
8
back_outsideCutPath
10
240.125
20
706
11
240.125
21
709
0
LINE
8
back_outsideCutPath
10
240.125
20
709
11
287.375
21
709
0
LINE
8
back_outsideCutPath
10
287.375
20
709
11
287.375
21
706
0
LINE
8
back_outsideCutPath
10
287.375
20
706
11
334.625
21
706
0
LINE
8
back_outsideCutPath
10
334.625
20
706
11
334.625
21
709
0
LINE
8
back_outsideCutPath
10
334.625
20
709
11
381.875
21
709
0
LINE
8
back_outsideCutPath
10
381.875
20
709
11
381.875
21
706
0
LINE
8
back_outsideCutPath
10
381.875
20
706
11
429.125
21
706
0
LINE
8
back_outsideCutPath
10
429.125
20
706
11
429.125
21
709
0
LINE
8
back_outsideCutPath
10
429.125
20
709
11
476.375
21
709
0
LINE
8
back_outsideCutPath
10
476.375
20
709
11
476.375
21
706
0
LINE
8
back_outsideCutPath
10
476.375
20
706
11
523.625
21
706
0
LINE
8
back_outsideCutPath
10
523.625
20
706
11
523.625
21
709
0
LINE
8
back_outsideCutPath
10
523.625
20
709
11
570.875
21
709
0
LINE
8
back_outsideCutPath
10
570.875
20
709
11
570.875
21
706
0
LINE
8
back_outsideCutPath
10
570.875
20
706
11
618.125
21
706
0
LINE
8
back_outsideCutPath
10
618.125
20
706
11
618.125
21
709
0
LINE
8
back_outsideCutPath
10
618.125
20
709
11
665.375
21
709
0
LINE
8
back_outsideCutPath
10
665.375
20
709
11
665.375
21
706
0
LINE
8
back_outsideCutPath
10
665.375
20
706
11
712.625
21
706
0
LINE
8
back_outsideCutPath
10
712.625
20
706
11
712.625
21
709
0
LINE
8
back_outsideCutPath
10
712.625
20
709
11
759.875
21
709
0
LINE
8
back_outsideCutPath
10
759.875
20
709
11
759.875
21
706
0
LINE
8
back_outsideCutPath
10
759.875
20
706
11
807.125
21
706
0
LINE
8
back_outsideCutPath
10
807.125
20
706
11
807.125
21
709
0
LINE
8
back_outsideCutPath
10
807.125
20
709
11
854.375
21
709
0
LINE
8
back_outsideCutPath
10
854.375
20
709
11
854.375
21
706
0
LINE
8
back_outsideCutPath
10
854.375
20
706
11
901.625
21
706
0
LINE
8
back_outsideCutPath
10
901.625
20
706
11
901.625
21
709
0
LINE
8
back_outsideCutPath
10
901.625
20
709
11
948.875
21
709
0
LINE
8
back_outsideCutPath
10
948.875
20
709
11
948.875
21
706
0
LINE
8
back_outsideCutPath
10
948.875
20
706
11
1000
21
706
0
LINE
8
back_outsideCutPath
10
1000
20
706
11
1000
21
748.875
0
LINE
8
back_outsideCutPath
10
1000
20
748.875
11
997
21
748.875
0
LINE
8
back_outsideCutPath
10
997
20
748.875
11
997
21
796.125
0
LINE
8
back_outsideCutPath
10
997
20
796.125
11
1000
21
796.125
0
LINE
8
back_outsideCutPath
10
1000
20
796.125
11
1000
21
843.375
0
LINE
8
back_outsideCutPath
10
1000
20
843.375
11
997
21
843.375
0
LINE
8
back_outsideCutPath
10
997
20
843.375
11
997
21
890.625
0
LINE
8
back_outsideCutPath
10
997
20
890.625
11
1000
21
890.625
0
LINE
8
back_outsideCutPath
10
1000
20
890.625
11
1000
21
937.875
0
LINE
8
back_outsideCutPath
10
1000
20
937.875
11
997
21
937.875
0
LINE
8
back_outsideCutPath
10
997
20
937.875
11
997
21
985.125
0
LINE
8
back_outsideCutPath
10
997
20
985.125
11
1000
21
985.125
0
LINE
8
back_outsideCutPath
10
1000
20
985.125
11
1000
21
1032.375
0
LINE
8
back_outsideCutPath
10
1000
20
1032.375
11
997
21
1032.375
0
LINE
8
back_outsideCutPath
10
997
20
1032.375
11
997
21
1079.625
0
LINE
8
back_outsideCutPath
10
997
20
1079.625
11
1000
21
1079.625
0
LINE
8
back_outsideCutPath
10
1000
20
1079.625
11
1000
21
1126.875
0
LINE
8
back_outsideCutPath
10
1000
20
1126.875
11
997
21
1126.875
0
LINE
8
back_outsideCutPath
10
997
20
1126.875
11
997
21
1174.125
0
LINE
8
back_outsideCutPath
10
997
20
1174.125
11
1000
21
1174.125
0
LINE
8
back_outsideCutPath
10
1000
20
1174.125
11
1000
21
1221.375
0
LINE
8
back_outsideCutPath
10
1000
20
1221.375
11
997
21
1221.375
0
LINE
8
back_outsideCutPath
10
997
20
1221.375
11
997
21
1268.625
0
LINE
8
back_outsideCutPath
10
997
20
1268.625
11
1000
21
1268.625
0
LINE
8
back_outsideCutPath
10
1000
20
1268.625
11
1000
21
1315.875
0
LINE
8
back_outsideCutPath
10
1000
20
1315.875
11
997
21
1315.875
0
LINE
8
back_outsideCutPath
10
997
20
1315.875
11
997
21
1363.125
0
LINE
8
back_outsideCutPath
10
997
20
1363.125
11
1000
21
1363.125
0
LINE
8
back_outsideCutPath
10
1000
20
1363.125
11
1000
21
1406
0
LINE
8
back_outsideCutPath
10
1000
20
1406
11
948.875
21
1406
0
LINE
8
back_outsideCutPath
10
948.875
20
1406
11
948.875
21
1403
0
LINE
8
back_outsideCutPath
10
948.875
20
1403
11
901.625
21
1403
0
LINE
8
back_outsideCutPath
10
901.625
20
1403
11
901.625
21
1406
0
LINE
8
back_outsideCutPath
10
901.625
20
1406
11
854.375
21
1406
0
LINE
8
back_outsideCutPath
10
854.375
20
1406
11
854.375
21
1403
0
LINE
8
back_outsideCutPath
10
854.375
20
1403
11
807.125
21
1403
0
LINE
8
back_outsideCutPath
10
807.125
20
1403
11
807.125
21
1406
0
LINE
8
back_outsideCutPath
10
807.125
20
1406
11
759.875
21
1406
0
LINE
8
back_outsideCutPath
10
759.875
20
1406
11
759.875
21
1403
0
LINE
8
back_outsideCutPath
10
759.875
20
1403
11
712.625
21
1403
0
LINE
8
back_outsideCutPath
10
712.625
20
1403
11
712.625
21
1406
0
LINE
8
back_outsideCutPath
10
712.625
20
1406
11
665.375
21
1406
0
LINE
8
back_outsideCutPath
10
665.375
20
1406
11
665.375
21
1403
0
LINE
8
back_outsideCutPath
10
665.375
20
1403
11
618.125
21
1403
0
LINE
8
back_outsideCutPath
10
618.125
20
1403
11
618.125
21
1406
0
LINE
8
back_outsideCutPath
10
618.125
20
1406
11
570.875
21
1406
0
LINE
8
back_outsideCutPath
10
570.875
20
1406
11
570.875
21
1403
0
LINE
8
back_outsideCutPath
10
570.875
20
1403
11
523.625
21
1403
0
LINE
8
back_outsideCutPath
10
523.625
20
1403
11
523.625
21
1406
0
LINE
8
back_outsideCutPath
10
523.625
20
1406
11
476.375
21
1406
0
LINE
8
back_outsideCutPath
10
476.375
20
1406
11
476.375
21
1403
0
LINE
8
back_outsideCutPath
10
476.375
20
1403
11
429.125
21
1403
0
LINE
8
back_outsideCutPath
10
429.125
20
1403
11
429.125
21
1406
0
LINE
8
back_outsideCutPath
10
429.125
20
1406
11
381.875
21
1406
0
LINE
8
back_outsideCutPath
10
381.875
20
1406
11
381.875
21
1403
0
LINE
8
back_outsideCutPath
10
381.875
20
1403
11
334.625
21
1403
0
LINE
8
back_outsideCutPath
10
334.625
20
1403
11
334.625
21
1406
0
LINE
8
back_outsideCutPath
10
334.625
20
1406
11
287.375
21
1406
0
LINE
8
back_outsideCutPath
10
287.375
20
1406
11
287.375
21
1403
0
LINE
8
back_outsideCutPath
10
287.375
20
1403
11
240.125
21
1403
0
LINE
8
back_outsideCutPath
10
240.125
20
1403
11
240.125
21
1406
0
LINE
8
back_outsideCutPath
10
240.125
20
1406
11
192.875
21
1406
0
LINE
8
back_outsideCutPath
10
192.875
20
1406
11
192.875
21
1403
0
LINE
8
back_outsideCutPath
10
192.875
20
1403
11
145.625
21
1403
0
LINE
8
back_outsideCutPath
10
145.625
20
1403
11
145.625
21
1406
0
LINE
8
back_outsideCutPath
10
145.625
20
1406
11
98.375
21
1406
0
LINE
8
back_outsideCutPath
10
98.375
20
1406
11
98.375
21
1403
0
LINE
8
back_outsideCutPath
10
98.375
20
1403
11
51.125
21
1403
0
LINE
8
back_outsideCutPath
10
51.125
20
1403
11
51.125
21
1406
0
LINE
8
back_outsideCutPath
10
51.125
20
1406
11
0
21
1406
0
LINE
8
back_labelLayer
10
366.2207031
20
1013.1394441
11
365.4003906
21
1013.1394441
0
LINE
8
back_labelLayer
10
365.4003906
20
1013.1394441
11
363.0078125
21
1003.5007722
0
LINE
8
back_labelLayer
10
363.0078125
20
1003.5007722
11
354.8730469
21
1003.5007722
0
LINE
8
back_labelLayer
10
354.8730469
20
1003.5007722
11
354.8730469
21
1109.8679597
0
LINE
8
back_labelLayer
10
354.8730469
20
1109.8679597
11
366.2207031
21
1109.8679597
0
LINE
8
back_labelLayer
10
366.2207031
20
1109.8679597
11
366.2207031
21
1084.028116
0
LINE
8
back_labelLayer
10
365.6738281
20
1068.4421785
11
366.2207031
21
1068.4421785
0
ARC
8
back_labelLayer
10
390.0767431
20
1044.97241
40
34.6823767
50
74.239333
51
90.5623794
0
ARC
8
back_labelLayer
10
392.370059
20
1053.3855388
40
25.9627497
50
38.5631297
51
74.0670378
0
ARC
8
back_labelLayer
10
386.4683251
20
1048.7965988
40
33.4382048
50
16.4709281
51
38.4075276
0
ARC
8
back_labelLayer
10
369.4663194
20
1043.4652656
40
51.2549297
50
5.1338459
51
16.797341
0
ARC
8
back_labelLayer
10
348.0027078
20
1041.1852493
40
72.8373014
50
359.877931
51
5.4093619
0
ARC
8
back_labelLayer
10
354.3070716
20
1040.6375344
40
66.5339301
50
350.6562796
51
0.3380337
0
ARC
8
back_labelLayer
10
377.5018758
20
1036.6923496
40
43.0065318
50
335.8305949
51
350.8254848
0
ARC
8
back_labelLayer
10
387.7048609
20
1032.2885968
40
31.8952972
50
321.3161448
51
335.5436168
0
ARC
8
back_labelLayer
10
391.6055264
20
1029.1101456
40
26.8638426
50
274.0640056
51
321.408102
0
ARC
8
back_labelLayer
10
389.7883386
20
1040.6208728
40
38.4873232
50
269.9225724
51
275.5481653
0
ARC
8
back_labelLayer
10
389.5449664
20
1036.5529594
40
34.4199066
50
255.7755405
51
270.3185446
0
ARC
8
back_labelLayer
10
388.5627118
20
1032.1889093
40
29.9485364
50
245.9801575
51
255.5455794
0
ARC
8
back_labelLayer
10
386.6601963
20
1027.7646017
40
25.1330085
50
215.5850185
51
245.8361682
0
ARC
8
back_labelLayer
10
129.6313201
20
1083.8280983
40
236.5894675
50
358.1123196
51
0.0484391
0
ARC
8
back_labelLayer
10
195.4776776
20
1081.6174481
40
170.7060288
50
355.7238638
51
358.1258973
0
ARC
8
back_labelLayer
10
224.4813144
20
1079.6249056
40
141.6346683
50
355.4715138
51
355.6528224
0
ARC
8
back_labelLayer
10
387.3835872
20
1053.6847305
40
25.8001926
50
95.183513
51
145.1108997
0
ARC
8
back_labelLayer
10
389.6513276
20
1040.896752
40
38.7564573
50
89.874339
51
96.8145407
0
ARC
8
back_labelLayer
10
387.858133
20
1038.2641879
40
31.8878599
50
89.5731324
51
100.7324261
0
ARC
8
back_labelLayer
10
385.4975414
20
1050.1907104
40
19.7306105
50
100.446942
51
119.670078
0
ARC
8
back_labelLayer
10
383.3085594
20
1054.2832672
40
15.0915795
50
120.1402889
51
142.4249024
0
ARC
8
back_labelLayer
10
386.9300595
20
1051.8875269
40
19.4252089
50
143.3382368
51
161.2559845
0
ARC
8
back_labelLayer
10
402.074449
20
1046.5107655
40
35.4948812
50
160.89264
51
171.2334273
0
ARC
8
back_labelLayer
10
427.3562403
20
1042.4322175
40
61.1031842
50
171.0667799
51
177.8456844
0
ARC
8
back_labelLayer
10
453.6489599
20
1041.0949688
40
87.428281
50
177.6176674
51
180.0425317
0
ARC
8
back_labelLayer
10
441.2499721
20
1040.7370929
40
75.029841
50
179.7762711
51
185.7075239
0
ARC
8
back_labelLayer
10
411.6683317
20
1037.6891374
40
45.2918218
50
185.592483
51
194.20507
0
ARC
8
back_labelLayer
10
392.7186933
20
1032.7710475
40
25.7149978
50
193.9430418
51
208.0218385
0
ARC
8
back_labelLayer
10
385.0515895
20
1028.8705799
40
17.1149855
50
208.5536512
51
217.5605398
0
ARC
8
back_labelLayer
10
384.4269432
20
1028.610776
40
16.4623745
50
218.1690481
51
253.8047148
0
ARC
8
back_labelLayer
10
387.4803923
20
1038.0248724
40
26.3563147
50
253.1382438
51
266.8483146
0
ARC
8
back_labelLayer
10
388.3366305
20
1048.1226087
40
36.4870852
50
266.3775731
51
270.0510507
0
ARC
8
back_labelLayer
10
388.6112038
20
1034.255681
40
22.6214383
50
269.3868884
51
285.8630658
0
ARC
8
back_labelLayer
10
390.2918318
20
1028.1816575
40
16.3194042
50
286.0162918
51
326.8497326
0
ARC
8
back_labelLayer
10
382.180246
20
1033.5552884
40
26.0493181
50
326.7104989
51
343.6661791
0
ARC
8
back_labelLayer
10
366.9958046
20
1038.1951608
40
41.9261893
50
343.417138
51
353.636914
0
ARC
8
back_labelLayer
10
344.0612436
20
1040.9165057
40
65.0212693
50
353.4934802
51
0.2205455
0
ARC
8
back_labelLayer
10
342.0396654
20
1041.4381593
40
67.0429151
50
359.7680817
51
6.3095275
0
ARC
8
back_labelLayer
10
367.29334
20
1044.3361751
40
41.6238518
50
6.1648653
51
16.0396405
0
ARC
8
back_labelLayer
10
383.5613863
20
1049.1303645
40
24.6647197
50
15.7779415
51
32.0151274
0
ARC
8
back_labelLayer
10
388.6342268
20
1052.0353928
40
18.8246941
50
32.7034183
51
35.5242305
0
ARC
8
back_labelLayer
10
390.4897189
20
1053.3541929
40
16.5482806
50
35.5408387
51
79.8011236
0
ARC
8
back_labelLayer
10
388.2674548
20
1043.9069124
40
26.2448124
50
78.6781307
51
90.3749586
0
LINE
8
back_labelLayer
10
495.1464844
20
1003.5007722
11
486.7382813
21
1003.5007722
0
LINE
8
back_labelLayer
10
486.7382813
20
1003.5007722
11
484.4824219
21
1014.1648347
0
LINE
8
back_labelLayer
10
484.4824219
20
1014.1648347
11
483.9355469
21
1014.1648347
0
LINE
8
back_labelLayer
10
471.3574219
20
1048.0027254
11
484.0722656
21
1048.4128816
0
LINE
8
back_labelLayer
10
484.0722656
20
1048.4128816
11
484.0722656
21
1053.0613191
0
LINE
8
back_labelLayer
10
446.953125
20
1064.5456941
11
443.4667969
21
1073.2273347
0
LINE
8
back_labelLayer
10
495.1464844
20
1054.6335847
11
495.1464844
21
1003.5007722
0
LINE
8
back_labelLayer
10
483.7988281
20
1033.5788972
11
483.7988281
21
1040.3464754
0
LINE
8
back_labelLayer
10
483.7988281
20
1040.3464754
11
472.4511719
21
1039.8679597
0
ARC
8
back_labelLayer
10
447.014705
20
1043.3156446
40
47.0416654
50
314.7445077
51
321.7071823
0
ARC
8
back_labelLayer
10
458.5721115
20
1031.5724276
40
30.5652691
50
304.8485616
51
314.8530758
0
ARC
8
back_labelLayer
10
464.1240518
20
1023.6698155
40
20.9074794
50
294.3932742
51
304.7371407
0
ARC
8
back_labelLayer
10
462.2272854
20
1028.5844891
40
26.1685366
50
281.2979531
51
293.7313723
0
ARC
8
back_labelLayer
10
459.7198482
20
1040.7368042
40
38.5766737
50
272.9335079
51
281.4139116
0
ARC
8
back_labelLayer
10
458.888733
20
1053.2009875
40
51.0674193
50
269.9539134
51
273.1490898
0
ARC
8
back_labelLayer
10
458.6016549
20
1036.9571367
40
34.8244208
50
258.6719697
51
270.4047434
0
ARC
8
back_labelLayer
10
456.1827043
20
1025.3858579
40
23.0036342
50
238.3273152
51
258.9183728
0
ARC
8
back_labelLayer
10
454.5157651
20
1022.34471
40
19.540989
50
227.7689443
51
237.8050003
0
ARC
8
back_labelLayer
10
453.9943455
20
1021.6168182
40
18.6518563
50
192.0827672
51
227.4520749
0
ARC
8
back_labelLayer
10
463.6104596
20
1023.987283
40
28.5527632
50
179.545727
51
192.6949356
0
ARC
8
back_labelLayer
10
454.6771668
20
1025.0211116
40
19.6351822
50
115.490464
51
182.356813
0
ARC
8
back_labelLayer
10
464.510682
20
1006.9844182
40
40.163541
50
101.3568195
51
117.079863
0
ARC
8
back_labelLayer
10
472.4079007
20
970.0800096
40
77.9019153
50
92.4696266
51
101.7064929
0
ARC
8
back_labelLayer
10
474.6776438
20
937.2065878
40
110.8458749
50
91.7164659
51
92.9095749
0
ARC
8
back_labelLayer
10
451.4795697
20
1053.2357697
40
32.5931628
50
359.6933306
51
8.003582
0
ARC
8
back_labelLayer
10
463.8088821
20
1055.0318931
40
20.1339578
50
7.8272715
51
20.604162
0
ARC
8
back_labelLayer
10
470.7858713
20
1057.7009347
40
12.6640706
50
20.4094194
51
41.4479391
0
ARC
8
back_labelLayer
10
471.8167378
20
1058.2675724
40
11.5191788
50
42.7295504
51
71.0380323
0
ARC
8
back_labelLayer
10
469.3897639
20
1051.6685828
40
18.5493074
50
70.5716309
51
83.9928599
0
ARC
8
back_labelLayer
10
468.2303191
20
1042.2504816
40
28.0375312
50
83.6506648
51
90.1753111
0
ARC
8
back_labelLayer
10
468.4337062
20
1033.3435135
40
36.9454999
50
90.4484625
51
103.7665496
0
ARC
8
back_labelLayer
10
472.7782995
20
1015.022174
40
55.7745724
50
103.6226527
51
112.4320015
0
ARC
8
back_labelLayer
10
480.2254735
20
996.2186398
40
75.9976021
50
112.2122274
51
115.9640982
0
ARC
8
back_labelLayer
10
468.2994257
20
1027.1755206
40
52.3204457
50
106.3568579
51
118.334983
0
ARC
8
back_labelLayer
10
470.5280463
20
1020.2912431
40
59.5540479
50
104.5162159
51
106.548963
0
ARC
8
back_labelLayer
10
468.8936537
20
1027.1008507
40
52.552306
50
90.0714434
51
104.652104
0
ARC
8
back_labelLayer
10
469.0998977
20
1031.7276103
40
47.9262762
50
81.5679802
51
90.3249055
0
ARC
8
back_labelLayer
10
471.8709267
20
1049.7800906
40
29.66275
50
68.2273467
51
81.7494224
0
ARC
8
back_labelLayer
10
475.7305068
20
1059.3830681
40
19.3132199
50
47.8683254
51
68.2934086
0
ARC
8
back_labelLayer
10
476.3569293
20
1060.6338385
40
17.9693179
50
19.2330986
51
46.6741184
0
ARC
8
back_labelLayer
10
465.921824
20
1056.7519576
40
29.1016306
50
6.3379047
51
19.6815371
0
ARC
8
back_labelLayer
10
450.4961238
20
1054.7873585
40
44.6506253
50
359.8026768
51
6.6583477
0
ARC
8
back_labelLayer
10
461.3329755
20
1042.7413462
40
31.2433697
50
269.5792003
51
282.0413663
0
ARC
8
back_labelLayer
10
463.6119609
20
1032.6327432
40
20.8820917
50
281.7120933
51
306.4593958
0
ARC
8
back_labelLayer
10
464.6224915
20
1030.9708662
40
18.9457762
50
306.9881168
51
313.8559313
0
ARC
8
back_labelLayer
10
464.5022788
20
1030.9364328
40
19.0045572
50
314.1891957
51
347.4269859
0
ARC
8
back_labelLayer
10
454.9824154
20
1033.322069
40
28.8165805
50
346.9177589
51
0.2824632
0
ARC
8
back_labelLayer
10
447.8164357
20
1033.5787648
40
35.9823925
50
359.8174662
51
0.000211
0
ARC
8
back_labelLayer
10
475.1504544
20
956.5903041
40
83.3213901
50
91.8564808
51
96.4478329
0
ARC
8
back_labelLayer
10
471.392895
20
989.1055678
40
50.5898999
50
96.3545392
51
102.9953257
0
ARC
8
back_labelLayer
10
466.2923084
20
1010.7764229
40
28.3272584
50
102.7995472
51
113.2433056
0
ARC
8
back_labelLayer
10
462.0875108
20
1020.8326942
40
17.4281309
50
113.5886536
51
121.6804957
0
ARC
8
back_labelLayer
10
459.1661406
20
1025.2818724
40
12.1085959
50
120.9734086
51
172.4179807
0
ARC
8
back_labelLayer
10
464.8761749
20
1024.1413298
40
17.9231654
50
171.2122121
51
180.205825
0
ARC
8
back_labelLayer
10
463.1696879
20
1023.9429521
40
16.2171165
50
179.526595
51
192.778721
0
ARC
8
back_labelLayer
10
457.6837169
20
1022.613132
40
10.5732158
50
192.3264458
51
222.0579843
0
ARC
8
back_labelLayer
10
457.2756604
20
1022.36911
40
10.1072014
50
222.5804945
51
229.2546757
0
ARC
8
back_labelLayer
10
458.6545615
20
1024.1444097
40
12.3527333
50
229.7836997
51
254.2724262
0
ARC
8
back_labelLayer
10
460.491074
20
1030.2644067
40
18.7417342
50
253.939666
51
266.4533823
0
ARC
8
back_labelLayer
10
461.0772239
20
1037.0207476
40
25.5219419
50
266.0783008
51
270.0590239
0
LINE
8
back_labelLayer
10
568.4960938
20
1075.8933504
11
565.0097656
21
1066.2546785
0
LINE
8
back_labelLayer
10
567.4023438
20
1016.0788972
11
567.4023438
21
1006.0300691
0
ARC
8
back_labelLayer
10
548.1048524
20
1044.5427846
40
42.4107443
50
256.4243756
51
270.4889832
0
ARC
8
back_labelLayer
10
544.7158354
20
1031.3157345
40
28.7583709
50
221.7976301
51
256.8020506
0
ARC
8
back_labelLayer
10
547.9977113
20
1033.7405852
40
32.8233838
50
196.0166625
51
221.1349227
0
ARC
8
back_labelLayer
10
564.4921328
20
1038.7821301
40
50.0694314
50
183.5913746
51
196.3539549
0
ARC
8
back_labelLayer
10
582.9698466
20
1040.4099699
40
68.6144169
50
179.9388548
51
183.9815031
0
ARC
8
back_labelLayer
10
576.9661163
20
1040.8863085
40
62.6119453
50
169.8978448
51
180.3688899
0
ARC
8
back_labelLayer
10
555.1694424
20
1044.9183696
40
40.4462203
50
153.0875143
51
170.1051378
0
ARC
8
back_labelLayer
10
546.8993308
20
1048.8700564
40
31.2838931
50
138.6550048
51
152.6853591
0
ARC
8
back_labelLayer
10
545.3558068
20
1049.9948741
40
29.3825765
50
101.4912921
51
138.3133899
0
ARC
8
back_labelLayer
10
548.8993704
20
1035.2469377
40
44.5440422
50
89.5891873
51
102.1787746
0
ARC
8
back_labelLayer
10
549.1718601
20
1028.5811158
40
51.2087404
50
77.770242
51
89.9475365
0
ARC
8
back_labelLayer
10
548.2026629
20
1023.234121
40
56.6400016
50
74.6796869
51
77.9578542
0
ARC
8
back_labelLayer
10
553.4382118
20
1042.2015516
40
36.9633104
50
70.094565
51
74.7386172
0
ARC
8
back_labelLayer
10
558.4183325
20
1055.8495699
40
22.4351349
50
63.5033872
51
70.1861557
0
ARC
8
back_labelLayer
10
560.7946877
20
1060.825137
40
16.9222549
50
62.9282975
51
63.1882357
0
ARC
8
back_labelLayer
10
546.3684577
20
1019.3409678
40
50.4816265
50
68.3294484
51
74.8831254
0
ARC
8
back_labelLayer
10
543.7052909
20
1009.8977749
40
60.2926673
50
74.7801791
51
77.449742
0
ARC
8
back_labelLayer
10
546.5014126
20
1023.022323
40
46.8742945
50
77.2998843
51
81.7345291
0
ARC
8
back_labelLayer
10
548.5407982
20
1037.2328585
40
32.518197
50
81.6910042
51
87.5079069
0
ARC
8
back_labelLayer
10
548.9342658
20
1044.5866613
40
25.1543476
50
87.6749609
51
89.9748382
0
ARC
8
back_labelLayer
10
548.3827758
20
1044.5765269
40
25.1707665
50
88.7194008
51
112.5667667
0
ARC
8
back_labelLayer
10
546.5942227
20
1050.4899451
40
19.0337729
50
114.4265737
51
161.6632795
0
ARC
8
back_labelLayer
10
564.361731
20
1043.5355541
40
38.1004084
50
160.141844
51
175.1368133
0
ARC
8
back_labelLayer
10
588.8163317
20
1040.7894855
40
62.7032798
50
174.5309776
51
180.154949
0
ARC
8
back_labelLayer
10
581.0688361
20
1040.3361262
40
54.9562875
50
179.7041312
51
188.074367
0
ARC
8
back_labelLayer
10
561.2742529
20
1037.4399647
40
34.9512548
50
187.9315223
51
200.3885403
0
ARC
8
back_labelLayer
10
550.5711591
20
1033.4750178
40
23.5373686
50
200.4183431
51
216.6392658
0
ARC
8
back_labelLayer
10
546.0841527
20
1030.2673711
40
18.0230119
50
216.9695354
51
261.3103036
0
ARC
8
back_labelLayer
10
548.0643585
20
1039.4993939
40
27.4540031
50
260.1359379
51
270.2692225
0
ARC
8
back_labelLayer
10
547.9729557
20
1059.5478361
40
47.5026533
50
270.2658429
51
286.2891439
0
ARC
8
back_labelLayer
10
545.0851638
20
1070.3173846
40
58.6504052
50
286.0460665
51
292.3653975
0
ARC
8
back_labelLayer
10
552.7757871
20
1034.8039966
40
32.2780895
50
282.0344254
51
296.9454481
0
ARC
8
back_labelLayer
10
549.4561873
20
1049.7641646
40
47.6017757
50
272.5980502
51
282.18784
0
ARC
8
back_labelLayer
10
548.5042543
20
1064.3636475
40
62.2300742
50
269.9655126
51
272.8642968
0
LINE
8
back_labelLayer
10
595.8398438
20
1041.8503816
11
596.3867188
21
1041.8503816
0
LINE
8
back_labelLayer
10
605.3417969
20
1052.7878816
11
629.5410156
21
1078.4226472
0
LINE
8
back_labelLayer
10
629.5410156
20
1078.4226472
11
643.0078125
21
1078.4226472
0
LINE
8
back_labelLayer
10
643.0078125
20
1078.4226472
11
612.65625
21
1046.4988191
0
LINE
8
back_labelLayer
10
612.65625
20
1046.4988191
11
645.1269531
21
1003.5007722
0
LINE
8
back_labelLayer
10
645.1269531
20
1003.5007722
11
631.3867188
21
1003.5007722
0
LINE
8
back_labelLayer
10
631.3867188
20
1003.5007722
11
604.9316406
21
1038.9109285
0
LINE
8
back_labelLayer
10
604.9316406
20
1038.9109285
11
596.3867188
21
1031.528116
0
LINE
8
back_labelLayer
10
596.3867188
20
1031.528116
11
596.3867188
21
1003.5007722
0
LINE
8
back_labelLayer
10
596.3867188
20
1003.5007722
11
585.1757813
21
1003.5007722
0
LINE
8
back_labelLayer
10
585.1757813
20
1003.5007722
11
585.1757813
21
1109.8679597
0
LINE
8
back_labelLayer
10
585.1757813
20
1109.8679597
11
596.3867188
21
1109.8679597
0
LINE
8
back_labelLayer
10
596.3867188
20
1109.8679597
11
596.3867188
21
1053.4714754
0
ARC
8
back_labelLayer
10
651.217196
20
1003.0390611
40
67.1766317
50
142.3233793
51
144.7075327
0
ARC
8
back_labelLayer
10
686.9913524
20
975.4456172
40
112.3561403
50
140.4331267
51
142.3365596
0
ARC
8
back_labelLayer
10
733.6109953
20
937.0693635
40
172.7392487
50
139.2799062
51
140.4703275
0
ARC
8
back_labelLayer
10
787.5086218
20
890.7211462
40
243.8244836
50
138.3417547
51
139.2877339
0
ARC
8
back_labelLayer
10
520.7674485
20
1053.6129989
40
75.6194027
50
358.2739161
51
359.8927695
0
ARC
8
back_labelLayer
10
461.9404645
20
1055.2523604
40
134.4691399
50
357.5041442
51
358.3307253
0
ARC
8
back_labelLayer
10
373.8876443
20
1059.1415001
40
222.6077976
50
356.632511
51
357.4910168
0
ARC
8
back_labelLayer
10
227.5172704
20
1067.6782988
40
369.2268955
50
356.0329327
51
356.6442624
0
ARC
8
back_labelLayer
10
129.3791487
20
1074.3010227
40
467.5880924
50
356.0204707
51
356.0553126
0
LINE
8
right_outsideCutPath
10
1006
20
1406
11
1006
21
1363.125
0
LINE
8
right_outsideCutPath
10
1006
20
1363.125
11
1003
21
1363.125
0
LINE
8
right_outsideCutPath
10
1003
20
1363.125
11
1003
21
1315.875
0
LINE
8
right_outsideCutPath
10
1003
20
1315.875
11
1006
21
1315.875
0
LINE
8
right_outsideCutPath
10
1006
20
1315.875
11
1006
21
1268.625
0
LINE
8
right_outsideCutPath
10
1006
20
1268.625
11
1003
21
1268.625
0
LINE
8
right_outsideCutPath
10
1003
20
1268.625
11
1003
21
1221.375
0
LINE
8
right_outsideCutPath
10
1003
20
1221.375
11
1006
21
1221.375
0
LINE
8
right_outsideCutPath
10
1006
20
1221.375
11
1006
21
1174.125
0
LINE
8
right_outsideCutPath
10
1006
20
1174.125
11
1003
21
1174.125
0
LINE
8
right_outsideCutPath
10
1003
20
1174.125
11
1003
21
1126.875
0
LINE
8
right_outsideCutPath
10
1003
20
1126.875
11
1006
21
1126.875
0
LINE
8
right_outsideCutPath
10
1006
20
1126.875
11
1006
21
1079.625
0
LINE
8
right_outsideCutPath
10
1006
20
1079.625
11
1003
21
1079.625
0
LINE
8
right_outsideCutPath
10
1003
20
1079.625
11
1003
21
1032.375
0
LINE
8
right_outsideCutPath
10
1003
20
1032.375
11
1006
21
1032.375
0
LINE
8
right_outsideCutPath
10
1006
20
1032.375
11
1006
21
985.125
0
LINE
8
right_outsideCutPath
10
1006
20
985.125
11
1003
21
985.125
0
LINE
8
right_outsideCutPath
10
1003
20
985.125
11
1003
21
937.875
0
LINE
8
right_outsideCutPath
10
1003
20
937.875
11
1006
21
937.875
0
LINE
8
right_outsideCutPath
10
1006
20
937.875
11
1006
21
890.625
0
LINE
8
right_outsideCutPath
10
1006
20
890.625
11
1003
21
890.625
0
LINE
8
right_outsideCutPath
10
1003
20
890.625
11
1003
21
843.375
0
LINE
8
right_outsideCutPath
10
1003
20
843.375
11
1006
21
843.375
0
LINE
8
right_outsideCutPath
10
1006
20
843.375
11
1006
21
796.125
0
LINE
8
right_outsideCutPath
10
1006
20
796.125
11
1003
21
796.125
0
LINE
8
right_outsideCutPath
10
1003
20
796.125
11
1003
21
748.875
0
LINE
8
right_outsideCutPath
10
1003
20
748.875
11
1006
21
748.875
0
LINE
8
right_outsideCutPath
10
1006
20
748.875
11
1006
21
706
0
LINE
8
right_outsideCutPath
10
1006
20
706
11
1029.375
21
706
0
LINE
8
right_outsideCutPath
10
1029.375
20
706
11
1029.375
21
709
0
LINE
8
right_outsideCutPath
10
1029.375
20
709
11
1076.625
21
709
0
LINE
8
right_outsideCutPath
10
1076.625
20
709
11
1076.625
21
706
0
LINE
8
right_outsideCutPath
10
1076.625
20
706
11
1100
21
706
0
LINE
8
right_outsideCutPath
10
1100
20
706
11
1100
21
748.875
0
LINE
8
right_outsideCutPath
10
1100
20
748.875
11
1103
21
748.875
0
LINE
8
right_outsideCutPath
10
1103
20
748.875
11
1103
21
796.125
0
LINE
8
right_outsideCutPath
10
1103
20
796.125
11
1100
21
796.125
0
LINE
8
right_outsideCutPath
10
1100
20
796.125
11
1100
21
843.375
0
LINE
8
right_outsideCutPath
10
1100
20
843.375
11
1103
21
843.375
0
LINE
8
right_outsideCutPath
10
1103
20
843.375
11
1103
21
890.625
0
LINE
8
right_outsideCutPath
10
1103
20
890.625
11
1100
21
890.625
0
LINE
8
right_outsideCutPath
10
1100
20
890.625
11
1100
21
937.875
0
LINE
8
right_outsideCutPath
10
1100
20
937.875
11
1103
21
937.875
0
LINE
8
right_outsideCutPath
10
1103
20
937.875
11
1103
21
985.125
0
LINE
8
right_outsideCutPath
10
1103
20
985.125
11
1100
21
985.125
0
LINE
8
right_outsideCutPath
10
1100
20
985.125
11
1100
21
1032.375
0
LINE
8
right_outsideCutPath
10
1100
20
1032.375
11
1103
21
1032.375
0
LINE
8
right_outsideCutPath
10
1103
20
1032.375
11
1103
21
1079.625
0
LINE
8
right_outsideCutPath
10
1103
20
1079.625
11
1100
21
1079.625
0
LINE
8
right_outsideCutPath
10
1100
20
1079.625
11
1100
21
1126.875
0
LINE
8
right_outsideCutPath
10
1100
20
1126.875
11
1103
21
1126.875
0
LINE
8
right_outsideCutPath
10
1103
20
1126.875
11
1103
21
1174.125
0
LINE
8
right_outsideCutPath
10
1103
20
1174.125
11
1100
21
1174.125
0
LINE
8
right_outsideCutPath
10
1100
20
1174.125
11
1100
21
1221.375
0
LINE
8
right_outsideCutPath
10
1100
20
1221.375
11
1103
21
1221.375
0
LINE
8
right_outsideCutPath
10
1103
20
1221.375
11
1103
21
1268.625
0
LINE
8
right_outsideCutPath
10
1103
20
1268.625
11
1100
21
1268.625
0
LINE
8
right_outsideCutPath
10
1100
20
1268.625
11
1100
21
1315.875
0
LINE
8
right_outsideCutPath
10
1100
20
1315.875
11
1103
21
1315.875
0
LINE
8
right_outsideCutPath
10
1103
20
1315.875
11
1103
21
1363.125
0
LINE
8
right_outsideCutPath
10
1103
20
1363.125
11
1100
21
1363.125
0
LINE
8
right_outsideCutPath
10
1100
20
1363.125
11
1100
21
1406
0
LINE
8
right_outsideCutPath
10
1100
20
1406
11
1076.625
21
1406
0
LINE
8
right_outsideCutPath
10
1076.625
20
1406
11
1076.625
21
1403
0
LINE
8
right_outsideCutPath
10
1076.625
20
1403
11
1029.375
21
1403
0
LINE
8
right_outsideCutPath
10
1029.375
20
1403
11
1029.375
21
1406
0
LINE
8
right_outsideCutPath
10
1029.375
20
1406
11
1006
21
1406
0
LINE
8
right_labelLayer
10
1038.4736328
20
1061.5859965
11
1038.2490234
21
1060.0820902
0
LINE
8
right_labelLayer
10
1033.9326172
20
1056.546934
11
1033.9326172
21
1050.8047465
0
LINE
8
right_labelLayer
10
1033.9326172
20
1050.8047465
11
1032.3115234
21
1050.8047465
0
LINE
8
right_labelLayer
10
1032.3115234
20
1050.8047465
11
1032.3115234
21
1061.5078715
0
LINE
8
right_labelLayer
10
1032.3115234
20
1061.5078715
11
1033.6494141
21
1061.5078715
0
LINE
8
right_labelLayer
10
1033.6494141
20
1061.5078715
11
1033.8349609
21
1059.5254496
0
LINE
8
right_labelLayer
10
1033.8349609
20
1059.5254496
11
1033.9130859
21
1059.5254496
0
ARC
8
right_labelLayer
10
1037.2109731
20
1054.2609915
40
7.4422111
50
84.992291
51
90.1280853
0
ARC
8
right_labelLayer
10
1037.3897017
20
1056.263446
40
5.4317999
50
78.4891881
51
85.0266001
0
ARC
8
right_labelLayer
10
1036.6959917
20
1053.1082823
40
7.1446416
50
77.4453847
51
81.6360114
0
ARC
8
right_labelLayer
10
1037.0072803
20
1055.2539438
40
4.9765227
50
81.5884291
51
87.1916446
0
ARC
8
right_labelLayer
10
1037.074891
20
1056.4262208
40
3.8023544
50
87.3437351
51
89.9659832
0
ARC
8
right_labelLayer
10
1037.0591828
20
1057.4197569
40
2.8088752
50
89.6335332
51
137.0880824
0
ARC
8
right_labelLayer
10
1037.7484147
20
1056.6446749
40
3.8426618
50
135.6208614
51
138.8378137
0
ARC
8
right_labelLayer
10
1037.6475217
20
1056.7431608
40
3.7018901
50
138.9575794
51
174.5422254
0
ARC
8
right_labelLayer
10
1038.8531895
20
1056.5545133
40
4.9205781
50
173.6907914
51
180.0882543
0
ARC
8
right_labelLayer
10
1038.6826861
20
1056.838279
40
5.4744836
50
139.4139283
51
150.6032915
0
ARC
8
right_labelLayer
10
1037.7011144
20
1057.6793819
40
4.1818363
50
124.2321574
51
139.4160923
0
ARC
8
right_labelLayer
10
1037.1762687
20
1058.471632
40
3.2316024
50
89.6796684
51
124.4405593
0
LINE
8
right_labelLayer
10
1042.0966797
20
1061.5078715
11
1042.0966797
21
1050.8047465
0
LINE
8
right_labelLayer
10
1042.0966797
20
1050.8047465
11
1040.4755859
21
1050.8047465
0
LINE
8
right_labelLayer
10
1040.4755859
20
1050.8047465
11
1040.4755859
21
1061.5078715
0
LINE
8
right_labelLayer
10
1040.4755859
20
1061.5078715
11
1042.0966797
21
1061.5078715
0
ARC
8
right_labelLayer
10
1042.1352002
20
1064.4193747
40
1.7963674
50
170.84516
51
180.354443
0
ARC
8
right_labelLayer
10
1041.4627107
20
1064.5318181
40
1.1145614
50
155.96784
51
171.0516068
0
ARC
8
right_labelLayer
10
1041.1369972
20
1064.676319
40
0.7582342
50
133.7880515
51
155.9170999
0
ARC
8
right_labelLayer
10
1041.2572495
20
1064.5433735
40
0.9374362
50
92.6445969
51
133.4710463
0
ARC
8
right_labelLayer
10
1041.2952373
20
1064.2449592
40
1.2375218
50
89.969388
51
93.7640939
0
ARC
8
right_labelLayer
10
1041.3106995
20
1064.5274675
40
0.955128
50
46.3708278
51
90.8879141
0
ARC
8
right_labelLayer
10
1041.4057574
20
1064.625602
40
0.8185082
50
17.7252267
51
46.4473562
0
ARC
8
right_labelLayer
10
1040.9624771
20
1064.4729548
40
1.2872609
50
4.9427611
51
18.1900435
0
ARC
8
right_labelLayer
10
1040.3986025
20
1064.4119934
40
1.854331
50
359.8847085
51
5.3182096
0
ARC
8
right_labelLayer
10
1040.5756929
20
1064.3968732
40
1.6772754
50
349.8345182
51
0.3890488
0
ARC
8
right_labelLayer
10
1041.1863228
20
1064.2829624
40
1.0561358
50
332.6322522
51
350.070587
0
ARC
8
right_labelLayer
10
1041.4239914
20
1064.1656033
40
0.7911343
50
313.6153551
51
332.2677738
0
ARC
8
right_labelLayer
10
1041.3094523
20
1064.2698955
40
0.9457148
50
269.1788142
51
314.2807511
0
ARC
8
right_labelLayer
10
1041.2851545
20
1064.3539714
40
1.0297497
50
250.5000439
51
270.5978105
0
ARC
8
right_labelLayer
10
1041.2539904
20
1064.2374378
40
0.9095473
50
225.1300523
51
249.9001405
0
ARC
8
right_labelLayer
10
1041.2051983
20
1064.1835405
40
0.8369342
50
197.7933491
51
224.8942061
0
ARC
8
right_labelLayer
10
1041.6618577
20
1064.3400336
40
1.3196052
50
184.9925272
51
198.2040554
0
ARC
8
right_labelLayer
10
1042.2528838
20
1064.4042737
40
1.9140208
50
179.8806098
51
185.368566
0
LINE
8
right_labelLayer
10
1050.5927734
20
1061.5078715
11
1054.2939453
21
1061.5078715
0
LINE
8
right_labelLayer
10
1054.2939453
20
1061.5078715
11
1054.2939453
21
1060.4824808
0
LINE
8
right_labelLayer
10
1054.2939453
20
1060.4824808
11
1052.3115234
21
1060.2481058
0
LINE
8
right_labelLayer
10
1048.6591797
20
1052.5039652
11
1050.5537109
21
1052.5039652
0
LINE
8
right_labelLayer
10
1050.0361328
20
1051.0488871
11
1048.0927734
21
1051.0488871
0
ARC
8
right_labelLayer
10
1050.2457144
20
1058.6132451
40
2.6344519
50
29.4583912
51
38.3577421
0
ARC
8
right_labelLayer
10
1049.1691082
20
1057.9986554
40
3.874121
50
23.1845822
51
29.5421815
0
ARC
8
right_labelLayer
10
1048.1419093
20
1057.5431305
40
4.997723
50
21.2506855
51
23.3489206
0
ARC
8
right_labelLayer
10
1049.8879468
20
1058.2375399
40
3.1187547
50
6.8504735
51
20.9872
0
ARC
8
right_labelLayer
10
1049.0095809
20
1058.1184446
40
4.0050778
50
359.8710952
51
7.0432407
0
ARC
8
right_labelLayer
10
1049.2985676
20
1058.070793
40
3.7162817
50
342.5649726
51
0.5957577
0
ARC
8
right_labelLayer
10
1049.983963
20
1057.8815291
40
3.0057696
50
310.6097754
51
342.0923762
0
ARC
8
right_labelLayer
10
1049.5996172
20
1058.3285942
40
3.5953358
50
284.9315915
51
310.6222663
0
ARC
8
right_labelLayer
10
1049.1186565
20
1060.0139454
40
5.3477935
50
272.5334957
51
285.257977
0
ARC
8
right_labelLayer
10
1048.9949931
20
1061.7031846
40
7.0410173
50
269.9692232
51
272.9311949
0
ARC
8
right_labelLayer
10
1048.9796499
20
1059.8721008
40
5.2099453
50
263.4836855
51
270.1271415
0
ARC
8
right_labelLayer
10
1048.8947813
20
1059.0659981
40
4.3994247
50
259.4963395
51
263.3904223
0
ARC
8
right_labelLayer
10
1049.4200129
20
1052.179081
40
2.8846791
50
117.3935299
51
128.4095265
0
ARC
8
right_labelLayer
10
1048.6773789
20
1053.1003731
40
1.7014082
50
128.0881899
51
147.1400598
0
ARC
8
right_labelLayer
10
1048.2772978
20
1053.368858
40
1.2196931
50
147.5369239
51
180.2592022
0
ARC
8
right_labelLayer
10
1047.8977479
20
1053.3529568
40
0.8401949
50
179.291902
51
198.3580478
0
ARC
8
right_labelLayer
10
1047.7404361
20
1053.3116135
40
0.6779462
50
199.2291438
51
239.5690898
0
ARC
8
right_labelLayer
10
1047.8707957
20
1053.4917189
40
0.8995167
50
238.2200043
51
239.8460148
0
ARC
8
right_labelLayer
10
1047.9749236
20
1053.7058924
40
1.1371495
50
240.7301941
51
254.5027091
0
ARC
8
right_labelLayer
10
1048.28529
20
1054.7754
40
2.2507401
50
254.1636876
51
262.2122981
0
ARC
8
right_labelLayer
10
1048.5311249
20
1056.4924505
40
3.9852803
50
262.0555586
51
267.2083598
0
ARC
8
right_labelLayer
10
1048.649889
20
1058.6707901
40
6.1668318
50
267.0919511
51
270.0863196
0
ARC
8
right_labelLayer
10
1050.5891476
20
1045.8682378
40
6.635822
50
81.5744259
51
90.3059724
0
ARC
8
right_labelLayer
10
1050.9531372
20
1048.2421106
40
4.2342546
50
68.367136
51
81.7399222
0
ARC
8
right_labelLayer
10
1051.4285434
20
1049.4570733
40
2.9296117
50
52.1879624
51
68.2500955
0
ARC
8
right_labelLayer
10
1051.7611951
20
1049.9052999
40
2.3715914
50
8.6201447
51
51.898241
0
ARC
8
right_labelLayer
10
1050.5953033
20
1049.6586094
40
3.5619591
50
359.7430778
51
9.7326305
0
ARC
8
right_labelLayer
10
1050.6475253
20
1049.5985216
40
3.5099785
50
340.5268782
51
0.720146
0
ARC
8
right_labelLayer
10
1051.1632266
20
1049.4701182
40
2.9814051
50
302.9903718
51
339.5494545
0
ARC
8
right_labelLayer
10
1050.6210276
20
1050.1593159
40
3.8555242
50
303.1871148
51
304.1720169
0
ARC
8
right_labelLayer
10
1050.1173545
20
1051.0315523
40
4.8615076
50
286.254211
51
302.5280183
0
ARC
8
right_labelLayer
10
1049.1992089
20
1054.0600161
40
8.0259813
50
276.4939772
51
286.4953662
0
ARC
8
right_labelLayer
10
1048.6263399
20
1058.8488822
40
12.8489412
50
269.7545176
51
276.6169549
0
ARC
8
right_labelLayer
10
1048.5285043
20
1055.0825184
40
9.0825602
50
262.5634818
51
270.2699014
0
ARC
8
right_labelLayer
10
1048.0836576
20
1051.7853262
40
5.7555434
50
251.2102012
51
262.7064068
0
ARC
8
right_labelLayer
10
1047.4424834
20
1049.9033831
40
3.767375
50
235.966797
51
251.2229064
0
ARC
8
right_labelLayer
10
1046.7628952
20
1048.93388
40
2.5836695
50
208.9036115
51
236.4231609
0
ARC
8
right_labelLayer
10
1046.8252833
20
1048.9077284
40
2.6261819
50
182.2079755
51
207.7461672
0
ARC
8
right_labelLayer
10
1047.6194471
20
1048.987056
40
3.4231584
50
179.9785049
51
183.0226599
0
ARC
8
right_labelLayer
10
1046.6746382
20
1049.0318278
40
2.4787307
50
138.391614
51
181.0052658
0
ARC
8
right_labelLayer
10
1046.936396
20
1048.7965852
40
2.8306574
50
113.8121401
51
138.3496206
0
ARC
8
right_labelLayer
10
1047.4329196
20
1047.7243837
40
4.0121099
50
102.2870907
51
114.1172764
0
ARC
8
right_labelLayer
10
1047.276901
20
1053.1755483
40
1.6824853
50
216.5861576
51
245.4968502
0
ARC
8
right_labelLayer
10
1047.517679
20
1053.3798314
40
1.9976852
50
215.4650457
51
217.1747138
0
ARC
8
right_labelLayer
10
1047.1165759
20
1053.0901191
40
1.5029096
50
182.1767501
51
215.3415496
0
ARC
8
right_labelLayer
10
1047.4738967
20
1053.1284392
40
1.8615921
50
179.9838091
51
182.937617
0
ARC
8
right_labelLayer
10
1047.4660535
20
1053.1446357
40
1.853815
50
161.7226125
51
180.4843331
0
ARC
8
right_labelLayer
10
1047.262229
20
1053.2002517
40
1.6428689
50
144.4963479
51
161.335045
0
ARC
8
right_labelLayer
10
1047.8055658
20
1052.7953075
40
2.320404
50
132.7259275
51
144.1479182
0
ARC
8
right_labelLayer
10
1048.676352
20
1051.8654116
40
3.594345
50
125.2212527
51
132.8655526
0
ARC
8
right_labelLayer
10
1049.5518309
20
1050.6497015
40
5.0924354
50
121.2352449
51
125.3794758
0
ARC
8
right_labelLayer
10
1047.9998391
20
1057.6290665
40
2.8419075
50
215.1640727
51
247.4747853
0
ARC
8
right_labelLayer
10
1048.5303222
20
1058.0571898
40
3.5224263
50
212.4714021
51
215.887566
0
ARC
8
right_labelLayer
10
1048.3908273
20
1057.9573907
40
3.351173
50
183.0160775
51
212.312319
0
ARC
8
right_labelLayer
10
1049.1261667
20
1058.0393543
40
4.0900342
50
179.9759015
51
183.6206916
0
ARC
8
right_labelLayer
10
1049.7195808
20
1058.0806338
40
4.683615
50
166.8195875
51
180.4839435
0
ARC
8
right_labelLayer
10
1048.1658397
20
1058.472919
40
3.0814803
50
132.3287821
51
167.3340828
0
ARC
8
right_labelLayer
10
1048.373709
20
1058.1741229
40
3.4426821
50
106.2189004
51
131.5377554
0
ARC
8
right_labelLayer
10
1048.8996577
20
1056.4711407
40
5.2248723
50
93.632975
51
106.5408676
0
ARC
8
right_labelLayer
10
1049.0713547
20
1054.5435392
40
7.1596488
50
89.9380052
51
94.0267838
0
ARC
8
right_labelLayer
10
1049.0991611
20
1055.4894799
40
6.2137364
50
82.585225
51
90.1849663
0
ARC
8
right_labelLayer
10
1049.2890225
20
1056.9584787
40
4.7325197
50
74.0089194
51
82.5694553
0
ARC
8
right_labelLayer
10
1047.3867554
20
1048.9857284
40
1.6281169
50
179.2207309
51
200.935564
0
ARC
8
right_labelLayer
10
1047.193143
20
1048.9408972
40
1.4315278
50
202.028675
51
236.1457476
0
ARC
8
right_labelLayer
10
1047.4849161
20
1049.3113575
40
1.9020601
50
235.0634158
51
238.5041866
0
ARC
8
right_labelLayer
10
1047.824176
20
1049.917318
40
2.5961346
50
239.106615
51
254.4863067
0
ARC
8
right_labelLayer
10
1048.2764728
20
1051.4768186
40
4.219834
50
254.2323945
51
263.4937537
0
ARC
8
right_labelLayer
10
1048.5605871
20
1053.8832019
40
6.6429195
50
263.4108368
51
270.1457377
0
ARC
8
right_labelLayer
10
1048.5906895
20
1055.4652806
40
8.2249871
50
269.9080095
51
270.0009111
0
ARC
8
right_labelLayer
10
1048.6296693
20
1058.1380649
40
10.8978408
50
269.7957494
51
275.3991084
0
ARC
8
right_labelLayer
10
1049.0375397
20
1053.9508652
40
6.6908512
50
275.2957034
51
283.3515941
0
ARC
8
right_labelLayer
10
1049.702051
20
1051.213867
40
3.8744047
50
283.1370673
51
295.8573119
0
ARC
8
right_labelLayer
10
1050.1944185
20
1050.1389585
40
2.6924989
50
296.4048133
51
301.800872
0
ARC
8
right_labelLayer
10
1050.387477
20
1049.8728482
40
2.3647203
50
301.2230954
51
318.6238129
0
ARC
8
right_labelLayer
10
1050.8228919
20
1049.4706383
40
1.7721859
50
319.0765535
51
1.1406985
0
ARC
8
right_labelLayer
10
1050.4015074
20
1049.5232944
40
2.193288
50
359.5460775
51
10.9904899
0
ARC
8
right_labelLayer
10
1051.2486928
20
1049.6956118
40
1.3288113
50
10.6608775
51
30.9361534
0
ARC
8
right_labelLayer
10
1051.5173109
20
1049.8446848
40
1.0218218
50
31.5095492
51
58.0777723
0
ARC
8
right_labelLayer
10
1051.2655513
20
1049.3938992
40
1.5377539
50
58.9972155
51
73.8586059
0
ARC
8
right_labelLayer
10
1050.7566869
20
1047.7280294
40
3.2795218
50
73.4099876
51
81.5906846
0
ARC
8
right_labelLayer
10
1050.3255288
20
1044.9378407
40
6.102794
50
81.4172367
51
86.575637
0
ARC
8
right_labelLayer
10
1050.0613221
20
1040.7339935
40
10.3149243
50
86.5054507
51
90.139918
0
ARC
8
right_labelLayer
10
1048.0695872
20
1047.3225499
40
3.7264093
50
89.6434955
51
100.0209284
0
ARC
8
right_labelLayer
10
1047.8353753
20
1048.5966364
40
2.4310217
50
99.810277
51
116.8229778
0
ARC
8
right_labelLayer
10
1047.6072334
20
1049.0777576
40
1.8987691
50
117.2304679
51
130.5023043
0
ARC
8
right_labelLayer
10
1047.4900887
20
1049.2283167
40
1.7082263
50
130.7944641
51
169.0413514
0
ARC
8
right_labelLayer
10
1048.352704
20
1049.025168
40
2.5939725
50
168.2580722
51
180.3820499
0
ARC
8
right_labelLayer
10
1049.8019445
20
1058.055935
40
3.1643417
50
179.5617754
51
191.6528905
0
ARC
8
right_labelLayer
10
1048.7017349
20
1057.8182313
40
2.0388239
50
191.3555163
51
213.366036
0
ARC
8
right_labelLayer
10
1048.4375221
20
1057.6656723
40
1.7343473
50
213.9573883
51
227.7971276
0
ARC
8
right_labelLayer
10
1048.6673917
20
1057.9444687
40
2.0953571
50
228.2620612
51
254.7341401
0
ARC
8
right_labelLayer
10
1048.9610679
20
1058.9511909
40
3.1439339
50
254.4016282
51
267.4348698
0
ARC
8
right_labelLayer
10
1049.0376859
20
1059.9787639
40
4.174018
50
267.0154833
51
270.0323008
0
ARC
8
right_labelLayer
10
1049.0877649
20
1059.3360605
40
3.5316365
50
269.2256931
51
284.3773202
0
ARC
8
right_labelLayer
10
1049.5691216
20
1057.659008
40
1.788278
50
282.7796683
51
346.4828524
0
ARC
8
right_labelLayer
10
1048.1299962
20
1058.066651
40
3.2833685
50
345.4362055
51
0.7465961
0
ARC
8
right_labelLayer
10
1047.9276957
20
1058.1592801
40
3.4857466
50
359.1806438
51
15.0431674
0
ARC
8
right_labelLayer
10
1049.5071517
20
1058.6200239
40
1.8411661
50
13.9535587
51
77.6673868
0
ARC
8
right_labelLayer
10
1049.0539902
20
1056.9960842
40
3.5257245
50
76.1095116
51
90.702832
0
ARC
8
right_labelLayer
10
1048.9861611
20
1057.1201095
40
3.4015226
50
89.5859491
51
101.3333872
0
ARC
8
right_labelLayer
10
1048.7430772
20
1058.279522
40
2.2169729
50
101.0620478
51
121.9739155
0
ARC
8
right_labelLayer
10
1048.572236
20
1058.5868511
40
1.8658881
50
122.5210678
51
134.9967093
0
ARC
8
right_labelLayer
10
1048.6425819
20
1058.544701
40
1.9455358
50
135.5840084
51
163.001576
0
ARC
8
right_labelLayer
10
1049.6699682
20
1058.2079612
40
3.0265604
50
162.5912073
51
175.7343257
0
ARC
8
right_labelLayer
10
1050.9022134
20
1058.08657
40
4.2645229
50
175.3393345
51
180.0864289
0
LINE
8
right_labelLayer
10
1065.4365234
20
1050.8047465
11
1063.8154297
21
1050.8047465
0
LINE
8
right_labelLayer
10
1063.8154297
20
1050.8047465
11
1063.8154297
21
1057.7285746
0
LINE
8
right_labelLayer
10
1058.1123047
20
1056.4004496
11
1058.1123047
21
1050.8047465
0
LINE
8
right_labelLayer
10
1058.1123047
20
1050.8047465
11
1056.4912109
21
1050.8047465
0
LINE
8
right_labelLayer
10
1056.4912109
20
1050.8047465
11
1056.4912109
21
1066.000059
0
LINE
8
right_labelLayer
10
1056.4912109
20
1066.000059
11
1058.1123047
21
1066.000059
0
LINE
8
right_labelLayer
10
1058.1123047
20
1066.000059
11
1058.1123047
21
1061.4004496
0
LINE
8
right_labelLayer
10
1058.0341797
20
1060.0234965
11
1058.1318359
21
1060.0234965
0
LINE
8
right_labelLayer
10
1065.4365234
20
1057.7871683
11
1065.4365234
21
1050.8047465
0
ARC
8
right_labelLayer
10
1059.2330699
20
1057.7548532
40
4.5824351
50
359.6714273
51
8.6877183
0
ARC
8
right_labelLayer
10
1060.931464
20
1058.0242078
40
2.8628588
50
8.4931172
51
22.6580015
0
ARC
8
right_labelLayer
10
1061.7943479
20
1058.3827957
40
1.9284334
50
22.7024538
51
42.3419526
0
ARC
8
right_labelLayer
10
1061.8913429
20
1058.4264271
40
1.8276521
50
43.3791036
51
71.5386098
0
ARC
8
right_labelLayer
10
1061.5286364
20
1057.4129338
40
2.9039368
50
71.0827882
51
84.3690971
0
ARC
8
right_labelLayer
10
1061.3658248
20
1056.0286776
40
4.2975682
50
84.0197499
51
90.1510883
0
ARC
8
right_labelLayer
10
1061.3195551
20
1055.4206932
40
4.9056621
50
89.5919487
51
100.3595241
0
ARC
8
right_labelLayer
10
1060.972191
20
1057.2461406
40
3.047537
50
100.1068053
51
118.0847271
0
ARC
8
right_labelLayer
10
1060.6188898
20
1057.9394039
40
2.2696253
50
118.4551041
51
139.6706062
0
ARC
8
right_labelLayer
10
1060.9735781
20
1057.6969689
40
2.6972872
50
140.6208152
51
160.5049118
0
ARC
8
right_labelLayer
10
1062.8431877
20
1057.0048458
40
4.6907784
50
160.1567165
51
171.5312858
0
ARC
8
right_labelLayer
10
1065.8682624
20
1056.5255609
40
7.7535057
50
171.3202501
51
178.3406756
0
ARC
8
right_labelLayer
10
1068.5748205
20
1056.4046422
40
10.4625167
50
178.1079588
51
180.0229599
0
ARC
8
right_labelLayer
10
1043.5295732
20
1061.3830616
40
14.5827418
50
357.8674098
51
0.0683177
0
ARC
8
right_labelLayer
10
1048.4833994
20
1061.1940583
40
9.6253145
50
354.9828812
51
357.8943747
0
ARC
8
right_labelLayer
10
1051.755291
20
1060.9091495
40
6.3410428
50
351.9712528
51
354.9619117
0
ARC
8
right_labelLayer
10
1060.8776945
20
1058.3058665
40
3.2388257
50
119.8315968
51
147.9725896
0
ARC
8
right_labelLayer
10
1061.2698747
20
1057.7034066
40
3.9567528
50
116.6658028
51
120.4183243
0
ARC
8
right_labelLayer
10
1061.3431111
20
1057.5110347
40
4.1615837
50
96.6652572
51
116.3782364
0
ARC
8
right_labelLayer
10
1061.5008935
20
1056.4224061
40
5.2612558
50
89.8927469
51
96.9958896
0
ARC
8
right_labelLayer
10
1061.5513445
20
1055.1067581
40
6.5770199
50
80.6863111
51
90.3537096
0
ARC
8
right_labelLayer
10
1061.9608715
20
1057.5155442
40
4.1337356
50
65.6022926
51
80.8843959
0
ARC
8
right_labelLayer
10
1062.4526385
20
1058.6231159
40
2.9219527
50
46.7401062
51
65.4130663
0
ARC
8
right_labelLayer
10
1062.4860634
20
1058.728651
40
2.8225978
50
19.2204318
51
45.7660665
0
ARC
8
right_labelLayer
10
1060.8585273
20
1058.1253107
40
4.5581614
50
6.4733964
51
19.6467979
0
ARC
8
right_labelLayer
10
1058.4266044
20
1057.8123096
40
7.009964
50
359.7945084
51
6.7743941
0
LINE
8
right_labelLayer
10
1073.6884766
20
1052.1426371
11
1073.6884766
21
1050.9024027
0
LINE
8
right_labelLayer
10
1068.8837891
20
1053.8809183
11
1068.8837891
21
1060.2481058
0
LINE
8
right_labelLayer
10
1068.8837891
20
1060.2481058
11
1067.3505859
21
1060.2481058
0
LINE
8
right_labelLayer
10
1067.3505859
20
1060.2481058
11
1067.3505859
21
1061.0293558
0
LINE
8
right_labelLayer
10
1067.3505859
20
1061.0293558
11
1068.8837891
21
1061.703184
0
LINE
8
right_labelLayer
10
1068.8837891
20
1061.703184
11
1069.5673828
21
1063.9883402
0
LINE
8
right_labelLayer
10
1069.5673828
20
1063.9883402
11
1070.5048828
21
1063.9883402
0
LINE
8
right_labelLayer
10
1070.5048828
20
1063.9883402
11
1070.5048828
21
1061.5078715
0
LINE
8
right_labelLayer
10
1070.5048828
20
1061.5078715
11
1073.6103516
21
1061.5078715
0
LINE
8
right_labelLayer
10
1073.6103516
20
1061.5078715
11
1073.6103516
21
1060.2481058
0
LINE
8
right_labelLayer
10
1073.6103516
20
1060.2481058
11
1070.5048828
21
1060.2481058
0
LINE
8
right_labelLayer
10
1070.5048828
20
1060.2481058
11
1070.5048828
21
1053.9492777
0
ARC
8
right_labelLayer
10
1072.2347514
20
1057.2712074
40
5.3238944
50
269.8803417
51
278.3028182
0
ARC
8
right_labelLayer
10
1072.284398
20
1056.8638546
40
4.9136514
50
278.4158959
51
279.0076561
0
ARC
8
right_labelLayer
10
1071.6880479
20
1060.6734033
40
8.7695902
50
278.9589695
51
280.5103918
0
ARC
8
right_labelLayer
10
1072.2573839
20
1057.6185373
40
5.6621249
50
280.4847522
51
282.6268451
0
ARC
8
right_labelLayer
10
1072.7566736
20
1055.4003626
40
3.3884538
50
282.5876165
51
285.5795336
0
ARC
8
right_labelLayer
10
1073.0083329
20
1054.4750941
40
2.429599
50
285.7231888
51
286.2566654
0
ARC
8
right_labelLayer
10
1073.0069231
20
1052.3439275
40
1.5945246
50
287.9888406
51
295.3048016
0
ARC
8
right_labelLayer
10
1072.6223285
20
1053.5075088
40
2.8200086
50
283.3069861
51
288.1197567
0
ARC
8
right_labelLayer
10
1072.2160747
20
1055.2021221
40
4.5626327
50
280.0069961
51
283.3735389
0
ARC
8
right_labelLayer
10
1071.9442668
20
1056.6772062
40
6.0625179
50
279.1862135
51
280.1142603
0
ARC
8
right_labelLayer
10
1071.7773867
20
1057.6263542
40
7.0261467
50
275.5260122
51
279.2939725
0
ARC
8
right_labelLayer
10
1071.9654064
20
1055.6624417
40
5.0532558
50
270.8932457
51
275.5483966
0
ARC
8
right_labelLayer
10
1071.9890142
20
1054.7653064
40
4.1558726
50
270.0033586
51
270.7606301
0
ARC
8
right_labelLayer
10
1071.9238416
20
1054.8429864
40
4.2340578
50
253.784789
51
270.8852547
0
ARC
8
right_labelLayer
10
1071.4222185
20
1053.1322616
40
2.4513133
50
190.3817699
51
253.8772374
0
ARC
8
right_labelLayer
10
1073.9789898
20
1053.8235667
40
5.0955236
50
179.3551054
51
192.8477577
0
ARC
8
right_labelLayer
10
1073.7691821
20
1053.9288628
40
3.2643631
50
179.6416773
51
189.7505556
0
ARC
8
right_labelLayer
10
1072.616792
20
1053.7233226
40
2.093823
50
189.5479676
51
205.7873396
0
ARC
8
right_labelLayer
10
1072.1432062
20
1053.5049372
40
1.5724225
50
206.1294051
51
221.408398
0
ARC
8
right_labelLayer
10
1072.0901078
20
1053.464647
40
1.505957
50
221.5949091
51
262.3505289
0
ARC
8
right_labelLayer
10
1072.2163992
20
1054.1140853
40
2.1667729
50
261.3266216
51
270.1912791
0
LINE
8
bottom_outsideCutPath
10
1109
20
203
11
1109
21
179.625
0
LINE
8
bottom_outsideCutPath
10
1109
20
179.625
11
1106
21
179.625
0
LINE
8
bottom_outsideCutPath
10
1106
20
179.625
11
1106
21
132.375
0
LINE
8
bottom_outsideCutPath
10
1106
20
132.375
11
1109
21
132.375
0
LINE
8
bottom_outsideCutPath
10
1109
20
132.375
11
1109
21
109
0
LINE
8
bottom_outsideCutPath
10
1109
20
109
11
1157.125
21
109
0
LINE
8
bottom_outsideCutPath
10
1157.125
20
109
11
1157.125
21
106
0
LINE
8
bottom_outsideCutPath
10
1157.125
20
106
11
1204.375
21
106
0
LINE
8
bottom_outsideCutPath
10
1204.375
20
106
11
1204.375
21
109
0
LINE
8
bottom_outsideCutPath
10
1204.375
20
109
11
1251.625
21
109
0
LINE
8
bottom_outsideCutPath
10
1251.625
20
109
11
1251.625
21
106
0
LINE
8
bottom_outsideCutPath
10
1251.625
20
106
11
1298.875
21
106
0
LINE
8
bottom_outsideCutPath
10
1298.875
20
106
11
1298.875
21
109
0
LINE
8
bottom_outsideCutPath
10
1298.875
20
109
11
1346.125
21
109
0
LINE
8
bottom_outsideCutPath
10
1346.125
20
109
11
1346.125
21
106
0
LINE
8
bottom_outsideCutPath
10
1346.125
20
106
11
1393.375
21
106
0
LINE
8
bottom_outsideCutPath
10
1393.375
20
106
11
1393.375
21
109
0
LINE
8
bottom_outsideCutPath
10
1393.375
20
109
11
1440.625
21
109
0
LINE
8
bottom_outsideCutPath
10
1440.625
20
109
11
1440.625
21
106
0
LINE
8
bottom_outsideCutPath
10
1440.625
20
106
11
1487.875
21
106
0
LINE
8
bottom_outsideCutPath
10
1487.875
20
106
11
1487.875
21
109
0
LINE
8
bottom_outsideCutPath
10
1487.875
20
109
11
1535.125
21
109
0
LINE
8
bottom_outsideCutPath
10
1535.125
20
109
11
1535.125
21
106
0
LINE
8
bottom_outsideCutPath
10
1535.125
20
106
11
1582.375
21
106
0
LINE
8
bottom_outsideCutPath
10
1582.375
20
106
11
1582.375
21
109
0
LINE
8
bottom_outsideCutPath
10
1582.375
20
109
11
1629.625
21
109
0
LINE
8
bottom_outsideCutPath
10
1629.625
20
109
11
1629.625
21
106
0
LINE
8
bottom_outsideCutPath
10
1629.625
20
106
11
1676.875
21
106
0
LINE
8
bottom_outsideCutPath
10
1676.875
20
106
11
1676.875
21
109
0
LINE
8
bottom_outsideCutPath
10
1676.875
20
109
11
1724.125
21
109
0
LINE
8
bottom_outsideCutPath
10
1724.125
20
109
11
1724.125
21
106
0
LINE
8
bottom_outsideCutPath
10
1724.125
20
106
11
1771.375
21
106
0
LINE
8
bottom_outsideCutPath
10
1771.375
20
106
11
1771.375
21
109
0
LINE
8
bottom_outsideCutPath
10
1771.375
20
109
11
1818.625
21
109
0
LINE
8
bottom_outsideCutPath
10
1818.625
20
109
11
1818.625
21
106
0
LINE
8
bottom_outsideCutPath
10
1818.625
20
106
11
1865.875
21
106
0
LINE
8
bottom_outsideCutPath
10
1865.875
20
106
11
1865.875
21
109
0
LINE
8
bottom_outsideCutPath
10
1865.875
20
109
11
1913.125
21
109
0
LINE
8
bottom_outsideCutPath
10
1913.125
20
109
11
1913.125
21
106
0
LINE
8
bottom_outsideCutPath
10
1913.125
20
106
11
1960.375
21
106
0
LINE
8
bottom_outsideCutPath
10
1960.375
20
106
11
1960.375
21
109
0
LINE
8
bottom_outsideCutPath
10
1960.375
20
109
11
2007.625
21
109
0
LINE
8
bottom_outsideCutPath
10
2007.625
20
109
11
2007.625
21
106
0
LINE
8
bottom_outsideCutPath
10
2007.625
20
106
11
2054.875
21
106
0
LINE
8
bottom_outsideCutPath
10
2054.875
20
106
11
2054.875
21
109
0
LINE
8
bottom_outsideCutPath
10
2054.875
20
109
11
2103
21
109
0
LINE
8
bottom_outsideCutPath
10
2103
20
109
11
2103
21
132.375
0
LINE
8
bottom_outsideCutPath
10
2103
20
132.375
11
2106
21
132.375
0
LINE
8
bottom_outsideCutPath
10
2106
20
132.375
11
2106
21
179.625
0
LINE
8
bottom_outsideCutPath
10
2106
20
179.625
11
2103
21
179.625
0
LINE
8
bottom_outsideCutPath
10
2103
20
179.625
11
2103
21
203
0
LINE
8
bottom_outsideCutPath
10
2103
20
203
11
2054.875
21
203
0
LINE
8
bottom_outsideCutPath
10
2054.875
20
203
11
2054.875
21
206
0
LINE
8
bottom_outsideCutPath
10
2054.875
20
206
11
2007.625
21
206
0
LINE
8
bottom_outsideCutPath
10
2007.625
20
206
11
2007.625
21
203
0
LINE
8
bottom_outsideCutPath
10
2007.625
20
203
11
1960.375
21
203
0
LINE
8
bottom_outsideCutPath
10
1960.375
20
203
11
1960.375
21
206
0
LINE
8
bottom_outsideCutPath
10
1960.375
20
206
11
1913.125
21
206
0
LINE
8
bottom_outsideCutPath
10
1913.125
20
206
11
1913.125
21
203
0
LINE
8
bottom_outsideCutPath
10
1913.125
20
203
11
1865.875
21
203
0
LINE
8
bottom_outsideCutPath
10
1865.875
20
203
11
1865.875
21
206
0
LINE
8
bottom_outsideCutPath
10
1865.875
20
206
11
1818.625
21
206
0
LINE
8
bottom_outsideCutPath
10
1818.625
20
206
11
1818.625
21
203
0
LINE
8
bottom_outsideCutPath
10
1818.625
20
203
11
1771.375
21
203
0
LINE
8
bottom_outsideCutPath
10
1771.375
20
203
11
1771.375
21
206
0
LINE
8
bottom_outsideCutPath
10
1771.375
20
206
11
1724.125
21
206
0
LINE
8
bottom_outsideCutPath
10
1724.125
20
206
11
1724.125
21
203
0
LINE
8
bottom_outsideCutPath
10
1724.125
20
203
11
1676.875
21
203
0
LINE
8
bottom_outsideCutPath
10
1676.875
20
203
11
1676.875
21
206
0
LINE
8
bottom_outsideCutPath
10
1676.875
20
206
11
1629.625
21
206
0
LINE
8
bottom_outsideCutPath
10
1629.625
20
206
11
1629.625
21
203
0
LINE
8
bottom_outsideCutPath
10
1629.625
20
203
11
1582.375
21
203
0
LINE
8
bottom_outsideCutPath
10
1582.375
20
203
11
1582.375
21
206
0
LINE
8
bottom_outsideCutPath
10
1582.375
20
206
11
1535.125
21
206
0
LINE
8
bottom_outsideCutPath
10
1535.125
20
206
11
1535.125
21
203
0
LINE
8
bottom_outsideCutPath
10
1535.125
20
203
11
1487.875
21
203
0
LINE
8
bottom_outsideCutPath
10
1487.875
20
203
11
1487.875
21
206
0
LINE
8
bottom_outsideCutPath
10
1487.875
20
206
11
1440.625
21
206
0
LINE
8
bottom_outsideCutPath
10
1440.625
20
206
11
1440.625
21
203
0
LINE
8
bottom_outsideCutPath
10
1440.625
20
203
11
1393.375
21
203
0
LINE
8
bottom_outsideCutPath
10
1393.375
20
203
11
1393.375
21
206
0
LINE
8
bottom_outsideCutPath
10
1393.375
20
206
11
1346.125
21
206
0
LINE
8
bottom_outsideCutPath
10
1346.125
20
206
11
1346.125
21
203
0
LINE
8
bottom_outsideCutPath
10
1346.125
20
203
11
1298.875
21
203
0
LINE
8
bottom_outsideCutPath
10
1298.875
20
203
11
1298.875
21
206
0
LINE
8
bottom_outsideCutPath
10
1298.875
20
206
11
1251.625
21
206
0
LINE
8
bottom_outsideCutPath
10
1251.625
20
206
11
1251.625
21
203
0
LINE
8
bottom_outsideCutPath
10
1251.625
20
203
11
1204.375
21
203
0
LINE
8
bottom_outsideCutPath
10
1204.375
20
203
11
1204.375
21
206
0
LINE
8
bottom_outsideCutPath
10
1204.375
20
206
11
1157.125
21
206
0
LINE
8
bottom_outsideCutPath
10
1157.125
20
206
11
1157.125
21
203
0
LINE
8
bottom_outsideCutPath
10
1157.125
20
203
11
1109
21
203
0
LINE
8
bottom_labelLayer
10
1574.7206558
20
149.8772058
11
1574.6034683
21
149.8772058
0
LINE
8
bottom_labelLayer
10
1574.6034683
20
149.8772058
11
1574.2616714
21
148.5002527
0
LINE
8
bottom_labelLayer
10
1574.2616714
20
148.5002527
11
1573.099562
21
148.5002527
0
LINE
8
bottom_labelLayer
10
1573.099562
20
148.5002527
11
1573.099562
21
163.6955652
0
LINE
8
bottom_labelLayer
10
1573.099562
20
163.6955652
11
1574.7206558
21
163.6955652
0
LINE
8
bottom_labelLayer
10
1574.7206558
20
163.6955652
11
1574.7206558
21
160.0041589
0
LINE
8
bottom_labelLayer
10
1574.6425308
20
157.7775964
11
1574.7206558
21
157.7775964
0
ARC
8
bottom_labelLayer
10
1578.1286614
20
154.424771
40
4.9546266
50
74.2393364
51
90.5623784
0
ARC
8
bottom_labelLayer
10
1578.4562775
20
155.6266471
40
3.7089652
50
38.563135
51
74.0670337
0
ARC
8
bottom_labelLayer
10
1577.6131726
20
154.9710849
40
4.776887
50
16.4709282
51
38.4075249
0
ARC
8
bottom_labelLayer
10
1575.1843174
20
154.2094659
40
7.3221308
50
5.1338483
51
16.7973468
0
ARC
8
bottom_labelLayer
10
1572.1180602
20
153.8837477
40
10.4053536
50
359.8779407
51
5.4093585
0
ARC
8
bottom_labelLayer
10
1573.0186917
20
153.8055057
40
9.5048639
50
350.6562881
51
0.3380252
0
ARC
8
bottom_labelLayer
10
1576.3322452
20
153.2419087
40
6.1437972
50
335.8306022
51
350.8254751
0
ARC
8
bottom_labelLayer
10
1577.7898287
20
152.6127944
40
4.5564622
50
321.3161305
51
335.5436301
0
ARC
8
bottom_labelLayer
10
1578.347059
20
152.1587347
40
3.8376919
50
274.0640061
51
321.4081015
0
ARC
8
bottom_labelLayer
10
1578.0874585
20
153.8031469
40
5.4982118
50
269.9225965
51
275.5481661
0
ARC
8
bottom_labelLayer
10
1578.052694
20
153.2219964
40
4.9171322
50
255.7755416
51
270.3185374
0
ARC
8
bottom_labelLayer
10
1577.9123782
20
152.5985788
40
4.2783843
50
245.9801859
51
255.5455587
0
ARC
8
bottom_labelLayer
10
1577.6405841
20
151.9665152
40
3.5904312
50
215.5850261
51
245.8361642
0
ARC
8
bottom_labelLayer
10
1540.9220797
20
159.9755857
40
33.7985882
50
358.1123236
51
0.0484378
0
ARC
8
bottom_labelLayer
10
1550.328985
20
159.6597695
40
24.3863854
50
355.7238501
51
358.1259023
0
ARC
8
bottom_labelLayer
10
1554.4878492
20
159.3738858
40
20.2177974
50
355.4715177
51
355.6529673
0
ARC
8
bottom_labelLayer
10
1577.743925
20
155.6693892
40
3.6857421
50
95.1835136
51
145.1108959
0
ARC
8
bottom_labelLayer
10
1578.0678892
20
153.8425045
40
5.5366677
50
89.8743539
51
96.8145168
0
ARC
8
bottom_labelLayer
10
1577.8117164
20
153.4664542
40
4.5554093
50
89.5731223
51
100.7324143
0
ARC
8
bottom_labelLayer
10
1577.4744886
20
155.1702462
40
2.8186562
50
100.4469271
51
119.6700806
0
ARC
8
bottom_labelLayer
10
1577.1617781
20
155.7548947
40
2.1559401
50
120.1402874
51
142.4248999
0
ARC
8
bottom_labelLayer
10
1577.6791349
20
155.4126468
40
2.7750293
50
143.3382417
51
161.2559929
0
ARC
8
bottom_labelLayer
10
1579.8425996
20
154.6445424
40
5.070677
50
160.8926193
51
171.2334482
0
ARC
8
bottom_labelLayer
10
1583.4543158
20
154.0618873
40
8.7290381
50
171.0667895
51
177.8456849
0
ARC
8
bottom_labelLayer
10
1587.210283
20
153.8708574
40
12.4896305
50
177.6176676
51
180.042556
0
ARC
8
bottom_labelLayer
10
1585.4391322
20
153.8197267
40
10.7185581
50
179.7762696
51
185.7075172
0
ARC
8
bottom_labelLayer
10
1581.2131467
20
153.3842998
40
6.4702325
50
185.5924625
51
194.2050865
0
ARC
8
bottom_labelLayer
10
1578.5060798
20
152.6817189
40
3.6735677
50
193.9430285
51
208.0218386
0
ARC
8
bottom_labelLayer
10
1577.4107846
20
152.124511
40
2.4449999
50
208.5536273
51
217.560509
0
ARC
8
bottom_labelLayer
10
1577.3215475
20
152.0873964
40
2.3517682
50
218.1690497
51
253.8047105
0
ARC
8
bottom_labelLayer
10
1577.7577528
20
153.4322609
40
3.7651815
50
253.1382373
51
266.8483309
0
ARC
8
bottom_labelLayer
10
1577.8800739
20
154.8747986
40
5.2124386
50
266.3775722
51
270.0510514
0
ARC
8
bottom_labelLayer
10
1577.919298
20
152.8938162
40
3.2316392
50
269.3869014
51
285.8630523
0
ARC
8
bottom_labelLayer
10
1578.1593886
20
152.0260932
40
2.3313432
50
286.0162899
51
326.849735
0
ARC
8
bottom_labelLayer
10
1577.0005884
20
152.7937556
40
3.7213332
50
326.7105084
51
343.6661789
0
ARC
8
bottom_labelLayer
10
1574.83138
20
153.4565956
40
5.9894605
50
343.4171354
51
353.6369032
0
ARC
8
bottom_labelLayer
10
1571.5550253
20
153.8453559
40
9.288746
50
353.4934852
51
0.2205553
0
ARC
8
bottom_labelLayer
10
1571.2662059
20
153.9198781
40
9.5775752
50
359.7680902
51
6.3095251
0
ARC
8
bottom_labelLayer
10
1574.8738995
20
154.3338833
40
5.9462546
50
6.1648601
51
16.0396518
0
ARC
8
bottom_labelLayer
10
1577.1979048
20
155.0187697
40
3.5235221
50
15.7779193
51
32.0151484
0
ARC
8
bottom_labelLayer
10
1577.9224684
20
155.4336904
40
2.6893853
50
32.70347
51
35.5241319
0
ARC
8
bottom_labelLayer
10
1578.1876582
20
155.6221702
40
2.3640397
50
35.5408356
51
79.8011276
0
ARC
8
bottom_labelLayer
10
1577.8701925
20
154.2725645
40
3.7492528
50
78.6781247
51
90.3749718
0
ARC
8
bottom_labelLayer
10
1586.2202725
20
153.8051309
40
8.3736204
50
349.1761945
51
0.3862568
0
ARC
8
bottom_labelLayer
10
1589.0394777
20
153.2431175
40
5.4990771
50
330.2507047
51
349.4116462
0
ARC
8
bottom_labelLayer
10
1589.9070862
20
152.7921683
40
4.5222197
50
318.143971
51
329.7566252
0
ARC
8
bottom_labelLayer
10
1590.0636745
20
152.6666786
40
4.3218687
50
278.8959183
51
317.9979086
0
ARC
8
bottom_labelLayer
10
1589.6602013
20
154.5997537
40
6.2948732
50
269.7502763
51
279.8033236
0
ARC
8
bottom_labelLayer
10
1589.5947651
20
153.5105914
40
5.2057899
50
253.5436962
51
270.418238
0
ARC
8
bottom_labelLayer
10
1589.4214714
20
152.8402519
40
4.5138811
50
238.8115441
51
253.242846
0
ARC
8
bottom_labelLayer
10
1589.3655465
20
152.7277885
40
4.3887236
50
207.7946962
51
238.6757996
0
ARC
8
bottom_labelLayer
10
1590.1680336
20
153.2192729
40
5.328149
50
205.6559791
51
208.4461025
0
ARC
8
bottom_labelLayer
10
1590.7861868
20
153.4768422
40
5.9969824
50
188.9102503
51
205.3171481
0
ARC
8
bottom_labelLayer
10
1592.869338
20
153.8296592
40
8.1096824
50
179.7744696
51
189.0932788
0
ARC
8
bottom_labelLayer
10
1593.176627
20
153.9185913
40
8.4171018
50
169.244298
51
180.388077
0
ARC
8
bottom_labelLayer
10
1590.3182487
20
154.4835881
40
5.5035418
50
150.7111564
51
169.4695354
0
ARC
8
bottom_labelLayer
10
1589.4057734
20
154.9521738
40
4.4786339
50
138.175962
51
150.2287147
0
ARC
8
bottom_labelLayer
10
1589.2539753
20
155.0686613
40
4.2878596
50
99.175935
51
137.9832793
0
ARC
8
bottom_labelLayer
10
1589.6717451
20
153.1025934
40
6.2961655
50
89.7326434
51
100.0759878
0
ARC
8
bottom_labelLayer
10
1589.755241
20
153.9516734
40
5.4472856
50
73.5222665
51
90.5692191
0
ARC
8
bottom_labelLayer
10
1590.0746919
20
155.1123218
40
4.2437569
50
41.1445735
51
73.2133783
0
ARC
8
bottom_labelLayer
10
1589.4648883
20
154.588204
40
5.047824
50
13.5014302
51
41.0703483
0
ARC
8
bottom_labelLayer
10
1587.1088985
20
153.9716734
40
7.4828084
50
1.1277281
51
13.8799962
0
ARC
8
bottom_labelLayer
10
1585.0796324
20
153.8629331
40
9.5140701
50
359.991856
51
1.5419431
0
ARC
8
bottom_labelLayer
10
1594.6484866
20
153.819452
40
8.2091889
50
179.7059623
51
187.9160759
0
ARC
8
bottom_labelLayer
10
1591.6376131
20
153.3869441
40
5.1674586
50
187.7639332
51
200.097688
0
ARC
8
bottom_labelLayer
10
1589.9789335
20
152.7792015
40
3.4009457
50
200.0845876
51
216.9131503
0
ARC
8
bottom_labelLayer
10
1589.3732409
20
152.3467092
40
2.6569704
50
217.300954
51
261.7099073
0
ARC
8
bottom_labelLayer
10
1589.6544223
20
153.6884754
40
4.0261509
50
260.5033133
51
270.2476938
0
ARC
8
bottom_labelLayer
10
1589.7080928
20
153.4275734
40
3.765386
50
269.4481646
51
284.7255643
0
ARC
8
bottom_labelLayer
10
1590.006176
20
152.3220773
40
2.620441
50
284.566235
51
322.6333878
0
ARC
8
bottom_labelLayer
10
1589.3092423
20
152.825581
40
3.4799996
50
323.0089266
51
342.6390508
0
ARC
8
bottom_labelLayer
10
1587.3158573
20
153.4770766
40
5.5770392
50
342.3615704
51
353.7537499
0
ARC
8
bottom_labelLayer
10
1584.3749319
20
153.8315641
40
8.539136
50
353.5363189
51
0.2014064
0
ARC
8
bottom_labelLayer
10
1584.8255712
20
153.9028657
40
8.0885493
50
359.7075543
51
7.8972827
0
ARC
8
bottom_labelLayer
10
1587.7878056
20
154.3275305
40
5.0960791
50
7.7440005
51
20.0690174
0
ARC
8
bottom_labelLayer
10
1589.4384981
20
154.9332721
40
3.3377565
50
20.0257107
51
37.4350558
0
ARC
8
bottom_labelLayer
10
1589.9861832
20
155.3219016
40
2.6667491
50
37.9577645
51
80.400615
0
ARC
8
bottom_labelLayer
10
1589.6749525
20
153.9332181
40
4.0885816
50
79.345353
51
90.3174962
0
ARC
8
bottom_labelLayer
10
1589.6173221
20
154.1638869
40
3.8580087
50
89.4805853
51
103.8805168
0
ARC
8
bottom_labelLayer
10
1589.2931498
20
155.3983298
40
2.5819124
50
103.4685218
51
142.3118841
0
ARC
8
bottom_labelLayer
10
1589.9233629
20
154.9551184
40
3.3517727
50
142.9025565
51
162.3749748
0
ARC
8
bottom_labelLayer
10
1591.9091787
20
154.293348
40
5.4448258
50
162.0652994
51
173.1674849
0
ARC
8
bottom_labelLayer
10
1595.0056002
20
153.898416
40
8.5662738
50
173.0086063
51
180.2463739
0
LINE
8
bottom_labelLayer
10
1602.3573745
20
149.8381433
11
1602.3573745
21
148.5979089
0
LINE
8
bottom_labelLayer
10
1597.552687
20
151.5764246
11
1597.552687
21
157.9436121
0
LINE
8
bottom_labelLayer
10
1597.552687
20
157.9436121
11
1596.0194839
21
157.9436121
0
LINE
8
bottom_labelLayer
10
1596.0194839
20
157.9436121
11
1596.0194839
21
158.7248621
0
LINE
8
bottom_labelLayer
10
1596.0194839
20
158.7248621
11
1597.552687
21
159.3986902
0
LINE
8
bottom_labelLayer
10
1597.552687
20
159.3986902
11
1598.2362808
21
161.6838464
0
LINE
8
bottom_labelLayer
10
1598.2362808
20
161.6838464
11
1599.1737808
21
161.6838464
0
LINE
8
bottom_labelLayer
10
1599.1737808
20
161.6838464
11
1599.1737808
21
159.2033777
0
LINE
8
bottom_labelLayer
10
1599.1737808
20
159.2033777
11
1602.2792495
21
159.2033777
0
LINE
8
bottom_labelLayer
10
1602.2792495
20
159.2033777
11
1602.2792495
21
157.9436121
0
LINE
8
bottom_labelLayer
10
1602.2792495
20
157.9436121
11
1599.1737808
21
157.9436121
0
LINE
8
bottom_labelLayer
10
1599.1737808
20
157.9436121
11
1599.1737808
21
151.6447839
0
ARC
8
bottom_labelLayer
10
1600.9036493
20
154.9667136
40
5.3238944
50
269.8803417
51
278.3028182
0
ARC
8
bottom_labelLayer
10
1600.953296
20
154.5593609
40
4.9136514
50
278.4158959
51
279.0076561
0
ARC
8
bottom_labelLayer
10
1600.3569458
20
158.3689095
40
8.7695902
50
278.9589695
51
280.5103918
0
ARC
8
bottom_labelLayer
10
1600.9262819
20
155.3140436
40
5.6621249
50
280.4847522
51
282.6268451
0
ARC
8
bottom_labelLayer
10
1601.4255715
20
153.0958688
40
3.3884538
50
282.5876165
51
285.5795336
0
ARC
8
bottom_labelLayer
10
1601.6772309
20
152.1706003
40
2.429599
50
285.7231888
51
286.2566654
0
ARC
8
bottom_labelLayer
10
1601.6758211
20
150.0394337
40
1.5945246
50
287.9888406
51
295.3048016
0
ARC
8
bottom_labelLayer
10
1601.2912265
20
151.2030151
40
2.8200086
50
283.3069861
51
288.1197567
0
ARC
8
bottom_labelLayer
10
1600.8849727
20
152.8976283
40
4.5626327
50
280.0069961
51
283.3735389
0
ARC
8
bottom_labelLayer
10
1600.6131648
20
154.3727124
40
6.0625179
50
279.1862135
51
280.1142603
0
ARC
8
bottom_labelLayer
10
1600.4462846
20
155.3218604
40
7.0261467
50
275.5260122
51
279.2939725
0
ARC
8
bottom_labelLayer
10
1600.6343044
20
153.357948
40
5.0532558
50
270.8932457
51
275.5483966
0
ARC
8
bottom_labelLayer
10
1600.6579122
20
152.4608126
40
4.1558726
50
270.0033586
51
270.7606301
0
ARC
8
bottom_labelLayer
10
1600.5927396
20
152.5384926
40
4.2340578
50
253.784789
51
270.8852547
0
ARC
8
bottom_labelLayer
10
1600.0911164
20
150.8277678
40
2.4513133
50
190.3817699
51
253.8772374
0
ARC
8
bottom_labelLayer
10
1602.6478878
20
151.5190729
40
5.0955236
50
179.3551054
51
192.8477577
0
ARC
8
bottom_labelLayer
10
1602.43808
20
151.624369
40
3.2643631
50
179.6416773
51
189.7505556
0
ARC
8
bottom_labelLayer
10
1601.28569
20
151.4188288
40
2.093823
50
189.5479676
51
205.7873396
0
ARC
8
bottom_labelLayer
10
1600.8121041
20
151.2004434
40
1.5724225
50
206.1294051
51
221.408398
0
ARC
8
bottom_labelLayer
10
1600.7590057
20
151.1601532
40
1.505957
50
221.5949091
51
262.3505289
0
ARC
8
bottom_labelLayer
10
1600.8852971
20
151.8095915
40
2.1667729
50
261.3266216
51
270.1912791
0
LINE
8
bottom_labelLayer
10
1609.4179214
20
149.8381433
11
1609.4179214
21
148.5979089
0
LINE
8
bottom_labelLayer
10
1604.6132339
20
151.5764246
11
1604.6132339
21
157.9436121
0
LINE
8
bottom_labelLayer
10
1604.6132339
20
157.9436121
11
1603.0800308
21
157.9436121
0
LINE
8
bottom_labelLayer
10
1603.0800308
20
157.9436121
11
1603.0800308
21
158.7248621
0
LINE
8
bottom_labelLayer
10
1603.0800308
20
158.7248621
11
1604.6132339
21
159.3986902
0
LINE
8
bottom_labelLayer
10
1604.6132339
20
159.3986902
11
1605.2968276
21
161.6838464
0
LINE
8
bottom_labelLayer
10
1605.2968276
20
161.6838464
11
1606.2343276
21
161.6838464
0
LINE
8
bottom_labelLayer
10
1606.2343276
20
161.6838464
11
1606.2343276
21
159.2033777
0
LINE
8
bottom_labelLayer
10
1606.2343276
20
159.2033777
11
1609.3397964
21
159.2033777
0
LINE
8
bottom_labelLayer
10
1609.3397964
20
159.2033777
11
1609.3397964
21
157.9436121
0
LINE
8
bottom_labelLayer
10
1609.3397964
20
157.9436121
11
1606.2343276
21
157.9436121
0
LINE
8
bottom_labelLayer
10
1606.2343276
20
157.9436121
11
1606.2343276
21
151.6447839
0
ARC
8
bottom_labelLayer
10
1607.9641962
20
154.9667136
40
5.3238944
50
269.8803417
51
278.3028182
0
ARC
8
bottom_labelLayer
10
1608.0138428
20
154.5593609
40
4.9136514
50
278.4158959
51
279.0076561
0
ARC
8
bottom_labelLayer
10
1607.4174927
20
158.3689095
40
8.7695902
50
278.9589695
51
280.5103918
0
ARC
8
bottom_labelLayer
10
1607.9868288
20
155.3140436
40
5.6621249
50
280.4847522
51
282.6268451
0
ARC
8
bottom_labelLayer
10
1608.4861184
20
153.0958688
40
3.3884538
50
282.5876165
51
285.5795336
0
ARC
8
bottom_labelLayer
10
1608.7377778
20
152.1706003
40
2.429599
50
285.7231888
51
286.2566654
0
ARC
8
bottom_labelLayer
10
1608.736368
20
150.0394337
40
1.5945246
50
287.9888406
51
295.3048016
0
ARC
8
bottom_labelLayer
10
1608.3517733
20
151.2030151
40
2.8200086
50
283.3069861
51
288.1197567
0
ARC
8
bottom_labelLayer
10
1607.9455195
20
152.8976283
40
4.5626327
50
280.0069961
51
283.3735389
0
ARC
8
bottom_labelLayer
10
1607.6737116
20
154.3727124
40
6.0625179
50
279.1862135
51
280.1142603
0
ARC
8
bottom_labelLayer
10
1607.5068315
20
155.3218604
40
7.0261467
50
275.5260122
51
279.2939725
0
ARC
8
bottom_labelLayer
10
1607.6948512
20
153.357948
40
5.0532558
50
270.8932457
51
275.5483966
0
ARC
8
bottom_labelLayer
10
1607.718459
20
152.4608126
40
4.1558726
50
270.0033586
51
270.7606301
0
ARC
8
bottom_labelLayer
10
1607.6532865
20
152.5384926
40
4.2340578
50
253.784789
51
270.8852547
0
ARC
8
bottom_labelLayer
10
1607.1516633
20
150.8277678
40
2.4513133
50
190.3817699
51
253.8772374
0
ARC
8
bottom_labelLayer
10
1609.7084347
20
151.5190729
40
5.0955236
50
179.3551054
51
192.8477577
0
ARC
8
bottom_labelLayer
10
1609.4986269
20
151.624369
40
3.2643631
50
179.6416773
51
189.7505556
0
ARC
8
bottom_labelLayer
10
1608.3462369
20
151.4188288
40
2.093823
50
189.5479676
51
205.7873396
0
ARC
8
bottom_labelLayer
10
1607.872651
20
151.2004434
40
1.5724225
50
206.1294051
51
221.408398
0
ARC
8
bottom_labelLayer
10
1607.8195526
20
151.1601532
40
1.505957
50
221.5949091
51
262.3505289
0
ARC
8
bottom_labelLayer
10
1607.945844
20
151.8095915
40
2.1667729
50
261.3266216
51
270.1912791
0
ARC
8
bottom_labelLayer
10
1612.4214444
20
153.8051309
40
8.3736204
50
349.1761945
51
0.3862568
0
ARC
8
bottom_labelLayer
10
1615.2406496
20
153.2431175
40
5.4990771
50
330.2507047
51
349.4116462
0
ARC
8
bottom_labelLayer
10
1616.108258
20
152.7921683
40
4.5222197
50
318.143971
51
329.7566252
0
ARC
8
bottom_labelLayer
10
1616.2648464
20
152.6666786
40
4.3218687
50
278.8959183
51
317.9979086
0
ARC
8
bottom_labelLayer
10
1615.8613731
20
154.5997537
40
6.2948732
50
269.7502763
51
279.8033236
0
ARC
8
bottom_labelLayer
10
1615.795937
20
153.5105914
40
5.2057899
50
253.5436962
51
270.418238
0
ARC
8
bottom_labelLayer
10
1615.6226432
20
152.8402519
40
4.5138811
50
238.8115441
51
253.242846
0
ARC
8
bottom_labelLayer
10
1615.5667184
20
152.7277885
40
4.3887236
50
207.7946962
51
238.6757996
0
ARC
8
bottom_labelLayer
10
1616.3692055
20
153.2192729
40
5.328149
50
205.6559791
51
208.4461025
0
ARC
8
bottom_labelLayer
10
1616.9873587
20
153.4768422
40
5.9969824
50
188.9102503
51
205.3171481
0
ARC
8
bottom_labelLayer
10
1619.0705098
20
153.8296592
40
8.1096824
50
179.7744696
51
189.0932788
0
ARC
8
bottom_labelLayer
10
1619.3777989
20
153.9185913
40
8.4171018
50
169.244298
51
180.388077
0
ARC
8
bottom_labelLayer
10
1616.5194206
20
154.4835881
40
5.5035418
50
150.7111564
51
169.4695354
0
ARC
8
bottom_labelLayer
10
1615.6069453
20
154.9521738
40
4.4786339
50
138.175962
51
150.2287147
0
ARC
8
bottom_labelLayer
10
1615.4551472
20
155.0686613
40
4.2878596
50
99.175935
51
137.9832793
0
ARC
8
bottom_labelLayer
10
1615.872917
20
153.1025934
40
6.2961655
50
89.7326434
51
100.0759878
0
ARC
8
bottom_labelLayer
10
1615.9564129
20
153.9516734
40
5.4472856
50
73.5222665
51
90.5692191
0
ARC
8
bottom_labelLayer
10
1616.2758637
20
155.1123218
40
4.2437569
50
41.1445735
51
73.2133783
0
ARC
8
bottom_labelLayer
10
1615.6660602
20
154.588204
40
5.047824
50
13.5014302
51
41.0703483
0
ARC
8
bottom_labelLayer
10
1613.3100704
20
153.9716734
40
7.4828084
50
1.1277281
51
13.8799962
0
ARC
8
bottom_labelLayer
10
1611.2808043
20
153.8629331
40
9.5140701
50
359.991856
51
1.5419431
0
ARC
8
bottom_labelLayer
10
1620.8496584
20
153.819452
40
8.2091889
50
179.7059623
51
187.9160759
0
ARC
8
bottom_labelLayer
10
1617.8387849
20
153.3869441
40
5.1674586
50
187.7639332
51
200.097688
0
ARC
8
bottom_labelLayer
10
1616.1801054
20
152.7792015
40
3.4009457
50
200.0845876
51
216.9131503
0
ARC
8
bottom_labelLayer
10
1615.5744128
20
152.3467092
40
2.6569704
50
217.300954
51
261.7099073
0
ARC
8
bottom_labelLayer
10
1615.8555942
20
153.6884754
40
4.0261509
50
260.5033133
51
270.2476938
0
ARC
8
bottom_labelLayer
10
1615.9092647
20
153.4275734
40
3.765386
50
269.4481646
51
284.7255643
0
ARC
8
bottom_labelLayer
10
1616.2073479
20
152.3220773
40
2.620441
50
284.566235
51
322.6333878
0
ARC
8
bottom_labelLayer
10
1615.5104142
20
152.825581
40
3.4799996
50
323.0089266
51
342.6390508
0
ARC
8
bottom_labelLayer
10
1613.5170292
20
153.4770766
40
5.5770392
50
342.3615704
51
353.7537499
0
ARC
8
bottom_labelLayer
10
1610.5761037
20
153.8315641
40
8.539136
50
353.5363189
51
0.2014064
0
ARC
8
bottom_labelLayer
10
1611.0267431
20
153.9028657
40
8.0885493
50
359.7075543
51
7.8972827
0
ARC
8
bottom_labelLayer
10
1613.9889775
20
154.3275305
40
5.0960791
50
7.7440005
51
20.0690174
0
ARC
8
bottom_labelLayer
10
1615.6396699
20
154.9332721
40
3.3377565
50
20.0257107
51
37.4350558
0
ARC
8
bottom_labelLayer
10
1616.187355
20
155.3219016
40
2.6667491
50
37.9577645
51
80.400615
0
ARC
8
bottom_labelLayer
10
1615.8761244
20
153.9332181
40
4.0885816
50
79.345353
51
90.3174962
0
ARC
8
bottom_labelLayer
10
1615.818494
20
154.1638869
40
3.8580087
50
89.4805853
51
103.8805168
0
ARC
8
bottom_labelLayer
10
1615.4943217
20
155.3983298
40
2.5819124
50
103.4685218
51
142.3118841
0
ARC
8
bottom_labelLayer
10
1616.1245348
20
154.9551184
40
3.3517727
50
142.9025565
51
162.3749748
0
ARC
8
bottom_labelLayer
10
1618.1103506
20
154.293348
40
5.4448258
50
162.0652994
51
173.1674849
0
ARC
8
bottom_labelLayer
10
1621.2067721
20
153.898416
40
8.5662738
50
173.0086063
51
180.2463739
0
LINE
8
bottom_labelLayer
10
1638.9003433
20
148.5002527
11
1637.2792495
21
148.5002527
0
LINE
8
bottom_labelLayer
10
1637.2792495
20
148.5002527
11
1637.2792495
21
155.4631433
0
LINE
8
bottom_labelLayer
10
1632.0741714
20
154.4768152
11
1632.0741714
21
148.5002527
0
LINE
8
bottom_labelLayer
10
1632.0741714
20
148.5002527
11
1630.4530776
21
148.5002527
0
LINE
8
bottom_labelLayer
10
1630.4530776
20
148.5002527
11
1630.4530776
21
155.4631433
0
LINE
8
bottom_labelLayer
10
1625.2577651
20
154.1154871
11
1625.2577651
21
148.5002527
0
LINE
8
bottom_labelLayer
10
1625.2577651
20
148.5002527
11
1623.6366714
21
148.5002527
0
LINE
8
bottom_labelLayer
10
1623.6366714
20
148.5002527
11
1623.6366714
21
159.2033777
0
LINE
8
bottom_labelLayer
10
1623.6366714
20
159.2033777
11
1624.9550308
21
159.2033777
0
LINE
8
bottom_labelLayer
10
1624.9550308
20
159.2033777
11
1625.2187026
21
157.7385339
0
LINE
8
bottom_labelLayer
10
1625.2187026
20
157.7385339
11
1625.2968276
21
157.7385339
0
LINE
8
bottom_labelLayer
10
1631.7421401
20
157.5822839
11
1631.8202651
21
157.5822839
0
LINE
8
bottom_labelLayer
10
1638.9003433
20
155.4826746
11
1638.9003433
21
148.5002527
0
ARC
8
bottom_labelLayer
10
1632.4969733
20
155.4886162
40
4.782344
50
359.6948153
51
8.147152
0
ARC
8
bottom_labelLayer
10
1634.2584598
20
155.7492964
40
3.0017048
50
7.9864605
51
20.7949836
0
ARC
8
bottom_labelLayer
10
1635.2321531
20
156.1222828
40
1.9590239
50
20.7071465
51
40.0217449
0
ARC
8
bottom_labelLayer
10
1635.4457648
20
156.2620459
40
1.7058312
50
41.0408115
51
73.1792552
0
ARC
8
bottom_labelLayer
10
1635.1366758
20
155.3272025
40
2.6902401
50
72.6395403
51
86.2568077
0
ARC
8
bottom_labelLayer
10
1635.0376566
20
154.2587189
40
3.7630208
50
85.81445
51
90.0685292
0
ARC
8
bottom_labelLayer
10
1635.0012789
20
153.8505182
40
4.1713407
50
89.5621493
51
101.2961529
0
ARC
8
bottom_labelLayer
10
1634.6871061
20
155.3545771
40
2.6349128
50
101.0032238
51
121.7840516
0
ARC
8
bottom_labelLayer
10
1634.4482596
20
155.7809867
40
2.1467512
50
122.3597345
51
140.2884087
0
ARC
8
bottom_labelLayer
10
1634.8779734
20
155.4659061
40
2.6788228
50
140.9765347
51
161.1699396
0
ARC
8
bottom_labelLayer
10
1636.4967928
20
154.8898042
40
4.3970061
50
160.873164
51
172.5272498
0
ARC
8
bottom_labelLayer
10
1639.2018435
20
154.5162183
40
7.1276931
50
172.3776652
51
180.1829453
0
ARC
8
bottom_labelLayer
10
1640.943022
20
154.4769316
40
8.8688507
50
179.8932236
51
180.0007521
0
ARC
8
bottom_labelLayer
10
1625.6708015
20
155.4886162
40
4.782344
50
359.6948153
51
8.147152
0
ARC
8
bottom_labelLayer
10
1627.4322879
20
155.7492964
40
3.0017048
50
7.9864605
51
20.7949836
0
ARC
8
bottom_labelLayer
10
1628.4059812
20
156.1222828
40
1.9590239
50
20.7071465
51
40.0217449
0
ARC
8
bottom_labelLayer
10
1628.6240341
20
156.2651141
40
1.7004671
50
41.0610899
51
72.8993439
0
ARC
8
bottom_labelLayer
10
1628.3090909
20
155.3274918
40
2.6893653
50
72.3601097
51
85.9562019
0
ARC
8
bottom_labelLayer
10
1628.2024755
20
154.2256723
40
3.7960685
50
85.5237589
51
90.07935
0
ARC
8
bottom_labelLayer
10
1628.1661097
20
153.9955317
40
4.0263255
50
89.5573115
51
101.483221
0
ARC
8
bottom_labelLayer
10
1627.8570769
20
155.4434193
40
2.5459395
50
101.1546486
51
123.0655533
0
ARC
8
bottom_labelLayer
10
1627.6470092
20
155.809348
40
2.1247927
50
123.7020404
51
142.3022159
0
ARC
8
bottom_labelLayer
10
1628.1390743
20
155.4755241
40
2.7185185
50
143.0769734
51
161.3913907
0
ARC
8
bottom_labelLayer
10
1630.1225775
20
154.7749976
40
4.8219637
50
161.0234665
51
171.4468871
0
ARC
8
bottom_labelLayer
10
1633.4062022
20
154.2606322
40
8.1455941
50
171.3042099
51
178.3501498
0
ARC
8
bottom_labelLayer
10
1636.5445627
20
154.120469
40
11.2867988
50
178.0976131
51
180.0252899
0
ARC
8
bottom_labelLayer
10
1628.0431804
20
156.1235426
40
3.1860086
50
117.1209603
51
149.5423642
0
ARC
8
bottom_labelLayer
10
1628.3683394
20
155.5456123
40
3.848711
50
93.8343339
51
117.5072086
0
ARC
8
bottom_labelLayer
10
1628.458145
20
154.7501799
40
4.648511
50
89.9661644
51
94.2831456
0
ARC
8
bottom_labelLayer
10
1628.5119586
20
154.0914711
40
5.3074648
50
77.557218
51
90.5513091
0
ARC
8
bottom_labelLayer
10
1629.0044331
20
156.2096907
40
3.1329837
50
52.7027168
51
78.0053836
0
ARC
8
bottom_labelLayer
10
1629.1798934
20
156.5361399
40
2.7675848
50
22.2097854
51
51.4970615
0
ARC
8
bottom_labelLayer
10
1634.7569481
20
155.8992638
40
3.3847694
50
119.4041798
51
150.1828736
0
ARC
8
bottom_labelLayer
10
1635.1324272
20
155.3282593
40
4.0668329
50
118.2584996
51
120.0630391
0
ARC
8
bottom_labelLayer
10
1635.1312646
20
155.2866835
40
4.1029554
50
95.8635087
51
117.9693201
0
ARC
8
bottom_labelLayer
10
1635.2701254
20
154.2826255
40
5.1160697
50
89.9196905
51
96.2617621
0
ARC
8
bottom_labelLayer
10
1635.3147045
20
153.7637916
40
5.6350228
50
79.9361132
51
90.3803608
0
ARC
8
bottom_labelLayer
10
1635.6901727
20
155.7972964
40
3.5672237
50
62.9723397
51
80.1665017
0
ARC
8
bottom_labelLayer
10
1636.0826767
20
156.6025653
40
2.6715881
50
44.2290167
51
62.6229071
0
ARC
8
bottom_labelLayer
10
1635.965938
20
156.5509958
40
2.7915635
50
19.5612111
51
43.3161264
0
ARC
8
bottom_labelLayer
10
1634.2704981
20
155.9141873
40
4.6024761
50
7.5041886
51
19.9645351
0
ARC
8
bottom_labelLayer
10
1631.4649888
20
155.5202116
40
7.4354492
50
359.7107475
51
7.6907119
0
ENDSEC
0
EOF